<?xml version="1.0" encoding="utf-8"?>
<!-- Generator: Adobe Illustrator 22.0.1, SVG Export Plug-In . SVG Version: 6.00 Build 0)  -->
<svg version="1.1" id="Step_1" xmlns="http://www.w3.org/2000/svg" xmlns:xlink="http://www.w3.org/1999/xlink" x="0px" y="0px"
	 viewBox="0 0 160.8 105.8" style="enable-background:new 0 0 160.8 105.8;" xml:space="preserve">
<style type="text/css">
	.st0{fill:none;stroke:#2F322E;stroke-width:3.1765;stroke-miterlimit:10;}
	.st1{opacity:0.5;}
	.st2{fill:#A7A9AC;}
	.st3{fill:#95ABB5;stroke:#353838;stroke-width:0.8355;stroke-miterlimit:10;}
	.st4{fill:#DBA55B;stroke:#353838;stroke-width:0.8355;stroke-miterlimit:10;}
	.st5{fill:#E7BD5D;}
	.st6{fill:none;stroke:#353838;stroke-width:0.8626;stroke-miterlimit:10;}
	.st7{fill:#DBA19B;}
	.st8{fill:none;stroke:#353838;stroke-width:0.7239;stroke-miterlimit:10;}
	.st9{opacity:0.4;}
	.st10{fill:#353838;}
	.st11{fill:#FFFFFF;}
	.st12{fill:#2F322E;}
	.st13{fill:none;stroke:#2F322E;stroke-width:2.1177;stroke-miterlimit:10;}
	.st14{fill:#E0CDCA;}
	.st15{clip-path:url(#SVGID_2_);}
	.st16{fill:#B78F72;}
</style>
<g>
	<g>
		<path class="st0" d="M53.1,79.3c-0.1-4.1-3.6-7.3-7.7-7.2l-12.6,0.4c-1.6,0.1-3,0.6-4.2,1.5c-3.2,0.5-5.6,3.1-5.5,6.1L23.5,92
			c0.1,2.5,1.9,4.6,4.3,5.4c1.4,1.7,3.6,2.7,5.9,2.6l12.6-0.4c4.1-0.1,7.3-3.6,7.2-7.7L53.1,79.3z"/>
	</g>
	<g class="st1">
		<path class="st2" d="M48.7,99.4c0,1.3-6.8,2.4-15.2,2.4s-12.1-1.6-14.5-3.6c-1.3-1.1,6.1-1.2,14.5-1.2S48.7,98.1,48.7,99.4"/>
	</g>
	<g>
		<g>
			<g>
				<path class="st3" d="M49.8,90.9c0.1,3.3-2.7,6.1-6.3,6.2l-12.9,0.4C27,97.6,24,95,23.9,91.8l-0.4-11.9c-0.1-3.3,2.7-6.1,6.3-6.2
					l12.9-0.4c3.6-0.1,6.6,2.5,6.7,5.7L49.8,90.9z"/>
				<path class="st4" d="M49.8,90.9c0.1,3.3-2.7,6.1-6.3,6.2l-12.9,0.4C27,97.6,24,95,23.9,91.8l-0.4-11.9c-0.1-3.3,2.7-6.1,6.3-6.2
					l12.9-0.4c3.6-0.1,6.6,2.5,6.7,5.7L49.8,90.9z"/>
			</g>
			<g>
				<path class="st5" d="M54,91.7c0.1,4.1-3.1,7.5-7.2,7.7l-12.6,0.4c-4.1,0.1-7.5-3.1-7.7-7.2L26.1,80c-0.1-4.1,3.1-7.5,7.2-7.7
					l12.6-0.4c4.1-0.1,7.5,3.1,7.7,7.2L54,91.7z"/>
				<path class="st6" d="M54,91.7c0.1,4.1-3.1,7.5-7.2,7.7l-12.6,0.4c-4.1,0.1-7.5-3.1-7.7-7.2L26.1,80c-0.1-4.1,3.1-7.5,7.2-7.7
					l12.6-0.4c4.1-0.1,7.5,3.1,7.7,7.2L54,91.7z"/>
			</g>
			<g>
				<path class="st7" d="M51.8,91.2c0.1,3.2-2.4,5.9-5.6,6l-11.5,0.4c-3.2,0.1-5.9-2.4-6-5.6l-0.4-11.5c-0.1-3.2,2.4-5.9,5.6-6
					l11.5-0.4c3.2-0.1,5.9,2.4,6,5.6L51.8,91.2z"/>
				<path class="st8" d="M51.8,91.2c0.1,3.2-2.4,5.9-5.6,6l-11.5,0.4c-3.2,0.1-5.9-2.4-6-5.6l-0.4-11.5c-0.1-3.2,2.4-5.9,5.6-6
					l11.5-0.4c3.2-0.1,5.9,2.4,6,5.6L51.8,91.2z"/>
			</g>
		</g>
		<g>
			<g id="XMLID_8_" class="st9">
				<path id="XMLID_12_" class="st10" d="M34.7,82.5c0,0.2-0.1,0.3-0.3,0.3s-0.3-0.1-0.3-0.3c0-0.2,0.1-0.3,0.3-0.3
					C34.6,82.2,34.7,82.4,34.7,82.5"/>
				<path id="XMLID_11_" class="st10" d="M45.9,82.4c0,0.2-0.1,0.3-0.3,0.3s-0.3-0.1-0.3-0.3c0-0.2,0.1-0.3,0.3-0.3
					C45.8,82.1,45.9,82.2,45.9,82.4"/>
				<path id="XMLID_10_" class="st10" d="M38.7,81.3h-1.1c0,0-0.1,0-0.1,0.1v0.2c0,0,0,0.1,0.1,0.1H38V83c0,0,0,0.1,0.1,0.1h0.2
					c0,0,0.1,0,0.1-0.1v-1.3h0.4c0,0,0.1,0,0.1-0.1L38.7,81.3L38.7,81.3"/>
				<path id="XMLID_9_" class="st10" d="M37.2,81.3H37c0,0-0.1,0-0.1,0.1V83c0,0,0,0.1,0.1,0.1h0.2c0,0,0.1,0,0.1-0.1L37.2,81.3
					C37.3,81.4,37.2,81.3,37.2,81.3"/>
				<path id="XMLID_6_" class="st10" d="M40.1,82.3h-0.2c0,0-0.1,0-0.1,0.1c0,0.2-0.1,0.4-0.3,0.4s-0.4-0.2-0.4-0.6
					c0-0.2,0-0.6,0.4-0.6c0.1,0,0.3,0,0.3,0.3c0,0,0,0.1,0.1,0.1h0.2l0,0c0,0,0,0,0-0.1c0-0.4-0.3-0.6-0.7-0.6s-0.7,0.3-0.7,0.9
					s0.3,0.9,0.7,0.9C39.9,83,40.2,82.8,40.1,82.3C40.2,82.3,40.2,82.3,40.1,82.3C40.2,82.3,40.2,82.3,40.1,82.3"/>
				<path id="XMLID_74_" class="st10" d="M36.2,81.9l0.3-0.5c0,0,0,0,0-0.1c0,0,0,0-0.1,0h-0.2l0,0l-0.5,0.9v-0.7c0,0,0-0.1-0.1-0.1
					h-0.2c0,0-0.1,0-0.1,0.1v1.6c0,0,0,0.1,0.1,0.1h0.2c0,0,0.1,0,0.1-0.1v-0.3l0.3-0.6l0.4,0.8c0,0,0,0,0.1,0h0.2c0,0,0,0,0.1,0
					c0,0,0,0,0-0.1L36.2,81.9z"/>
				<path id="XMLID_5_" class="st10" d="M44.6,81.2h-0.2c0,0-0.1,0-0.1,0.1v1l-0.6-1c0,0,0,0-0.1,0h-0.2c0,0-0.1,0-0.1,0.1V83
					c0,0,0,0.1,0.1,0.1h0.2c0,0,0.1,0,0.1-0.1v-1l0.6,1l0,0h0.2c0.1,0,0.1,0,0.1-0.1V81.2C44.6,81.3,44.6,81.2,44.6,81.2"/>
				<path id="XMLID_4_" class="st10" d="M43.1,82.6h-0.8v-0.4H43c0,0,0.1,0,0.1-0.1v-0.2c0,0,0-0.1-0.1-0.1h-0.7v-0.3h0.8
					c0,0,0.1,0,0.1-0.1v-0.2c0,0,0-0.1-0.1-0.1h-1c0,0-0.1,0-0.1,0.1v1.6c0,0,0,0.1,0.1,0.1h1c0,0,0.1,0,0.1-0.1L43.1,82.6
					C43.2,82.7,43.1,82.6,43.1,82.6"/>
				<path id="XMLID_45_" class="st10" d="M41.6,81.3h-0.2c0,0-0.1,0-0.1,0.1V82h-0.6v-0.6c0,0,0-0.1-0.1-0.1h-0.2c0,0-0.1,0-0.1,0.1
					V83c0,0,0,0.1,0.1,0.1h0.2c0,0,0.1,0,0.1-0.1v-0.7h0.6V83c0,0,0,0.1,0.1,0.1h0.2c0,0,0.1,0,0.1-0.1L41.6,81.3
					C41.7,81.3,41.7,81.3,41.6,81.3"/>
				<path id="XMLID_35_" class="st10" d="M47.5,78.8c-0.2,0-0.3-0.1-0.3-0.3c0-0.2,0.1-0.3,0.3-0.3s0.3,0.1,0.3,0.3
					S47.6,78.8,47.5,78.8 M47.5,78.3c-0.1,0-0.2,0.1-0.2,0.3c0,0.1,0.1,0.2,0.2,0.2c0.1,0,0.2-0.1,0.2-0.3
					C47.7,78.4,47.6,78.3,47.5,78.3 M47.4,78.4L47.4,78.4c0.2,0,0.2,0,0.2,0.1s0,0.1-0.1,0.1l0,0c0,0,0,0,0.1,0.1v0.1h-0.1v-0.1
					c0-0.1-0.1-0.1-0.1-0.1l0,0v0.1l0,0V78.4z M47.5,78.5L47.5,78.5C47.5,78.5,47.5,78.4,47.5,78.5L47.5,78.5L47.5,78.5L47.5,78.5z"
					/>
				<path id="XMLID_34_" class="st10" d="M44.4,78.3c-0.1-0.1-0.2-0.2-0.4-0.3c-0.2,0-0.4,0-0.5,0.1s-0.2,0.2-0.2,0.4
					c0,0.3,0.1,0.5,0.4,0.6c0,0.2-0.2,0.3-0.4,0.4l0,0c0.3,0,0.5-0.1,0.8-0.2c0.2-0.1,0.4-0.3,0.4-0.5S44.5,78.4,44.4,78.3"/>
				<path id="XMLID_18_" class="st10" d="M43.2,77.9c-0.1,0-0.1,0-0.2,0c-0.5-0.1-0.9-0.1-1.4-0.1c-0.1,0-0.1,0-0.2,0l0,0l0.2,0.1
					c-0.1,0.2-0.3,0.3-0.4,0.5c-0.1-0.2-0.3-0.3-0.4-0.5H41l0,0c-0.1,0-0.1,0-0.2,0c-0.5,0-0.9,0-1.4,0c-0.1,0-0.1,0-0.2,0l0,0
					l0.3,0.1c0.4,0.4,0.7,0.9,1.1,1.3c0,0.3,0,0.7,0,1l-0.3-0.1l0,0c0.1,0,0.1,0,0.2,0c0.4,0,0.8,0,1.2,0.1c0.1,0,0.1,0,0.2,0l0,0
					l-0.2-0.1c0-0.3,0-0.7,0.1-1c0.4-0.4,0.7-0.8,1.1-1.2L43.2,77.9L43.2,77.9z"/>
				<path id="XMLID_17_" class="st10" d="M46.8,80c-0.1-0.1-0.2-0.2-0.4-0.4c-0.2-0.1-0.3-0.2-0.3-0.3c0,0-0.1-0.1,0-0.1
					c0-0.1,0.1-0.1,0.3-0.1c0.2,0.1,0.4,0.2,0.6,0.5l-0.1,0.1l0,0l0.6-0.7c-0.3-0.2-0.7-0.4-1.1-0.6c-0.5-0.1-0.8-0.2-1.1-0.1
					s-0.4,0.3-0.5,0.5c0,0.1,0,0.3,0,0.4c0.1,0.1,0.1,0.2,0.2,0.3c0.1,0.1,0.2,0.2,0.3,0.3c0.2,0.1,0.2,0.2,0.3,0.2v0.1
					c0,0,0,0.1-0.1,0.1c0,0-0.1,0-0.2,0c-0.1,0-0.2-0.1-0.3-0.2s-0.2-0.2-0.2-0.3v-0.2l0,0l-0.5,0.8c0.3,0.2,0.7,0.4,1.2,0.5
					c0.4,0.1,0.7,0.2,1,0.1s0.4-0.2,0.5-0.5c0-0.1,0-0.2,0-0.4C47,80.2,46.9,80.1,46.8,80"/>
				<path id="XMLID_16_" class="st10" d="M37.2,80.4c-0.1-0.8-0.2-1.5-0.3-2.3l0.2-0.1l0,0c-0.1,0-0.1,0-0.2,0
					c-0.4,0.1-0.9,0.2-1.3,0.3c-0.1,0-0.1,0-0.2,0.1l0,0h0.2c0.2,0.8,0.3,1.5,0.5,2.3l-0.2,0.1l0,0c0.1,0,0.1,0,0.2,0
					C36.4,80.6,36.8,80.6,37.2,80.4c0.1,0.1,0.1,0.1,0.2,0.1l0,0L37.2,80.4z"/>
				<path id="XMLID_15_" class="st10" d="M35.5,79.6L35.5,79.6v0.2c-0.3,0.1-0.7,0.2-1,0.3c-0.1-0.4-0.2-0.9-0.4-1.3l0.2-0.1l0,0
					c-0.1,0-0.1,0-0.2,0.1c-0.4,0.1-0.9,0.3-1.3,0.5c-0.1,0-0.1,0.1-0.2,0.1l0,0h0.2c0.3,0.8,0.5,1.5,0.8,2.3
					c0.7-0.3,1.5-0.5,2.2-0.7L35.5,79.6z"/>
				<path id="XMLID_14_" class="st10" d="M40,79L40,79l-0.1,0.2c-0.3,0-0.7,0-1,0c0-0.5-0.1-0.9-0.1-1.4l0.2-0.1l0,0
					c-0.1,0-0.1,0-0.2,0c-0.4,0-0.9,0.1-1.3,0.1c-0.1,0-0.1,0-0.2,0l0,0h0.2c0.1,0.8,0.2,1.6,0.3,2.4c0.7-0.1,1.5-0.2,2.3-0.2L40,79
					z"/>
			</g>
			<g class="st9">
				<path class="st10" d="M43.4,85.5c-0.1,0-0.5,0.1-1,0.4c0-0.1,0-0.2,0-0.2c0.3-0.2,0.7-0.4,0.8-0.5l0,0l0,0l0,0v-0.1l0,0
					l-0.9,0.5c0-0.1-0.1-0.1-0.1-0.2c0.1-0.1,0.3-0.2,0.5-0.4c0.1-0.1,0.1-0.1,0.1-0.1l0,0l0,0v-0.1h-0.1c0,0,0,0-0.2,0.1
					c-0.1,0.1-0.1,0.1-0.2,0.2l0,0c-0.1,0.1-0.2,0.1-0.2,0.2c-0.2-0.2-0.4-0.4-0.7-0.4c-0.1-0.1-0.4-0.5-0.5-0.8L40.8,84h-0.1
					l-0.1,0.1L40.4,85l-1,0.5l-0.7-0.4h-0.1l-0.2,0.1h-0.1l0.3,1.1c-0.1,0.1-0.1,0.3-0.1,0.5l0,0l0,0v0.1l0,0l-0.8,0.5l0,0v0.1l0,0
					l0,0c0,0,0,0,0.1,0l0,0c0,0,0.1,0,0.2-0.1c0.1,0,0.1,0,0.1-0.1c0,0,0.1,0,0.2-0.1c0.1,0,0.1,0,0.1-0.1h0.1l0,0l0,0l0,0v0.1v0.1
					l0,0l-0.7,0.4c-0.1,0-0.1,0.1-0.1,0.1l0,0v0.1V88l0,0c0,0,0.1,0,0.2-0.1l0,0l0,0c0.2-0.1,0.4-0.2,0.5-0.3c0,0,0,0,0.1,0
					c0,0,0,0,0.1,0l0,0l0.1,0.1l0,0l0,0L38,88.3l0,0c0,0,0,0,0.1,0l0,0c0.2-0.1,0.5-0.3,0.7-0.4l0.1-0.1l0,0l0,0c0,0,0.1,0,0.1,0.1
					l0,0l0,0c0.1,0.1,0.3,0.1,0.4,0.1c0,0.5-0.3,1-0.8,1.7c-0.6,0.8-1.2,1.8-1.1,2.9c-0.5,0.2-0.1,0.5-0.1,0.9c0.1,0.5,0.6,0,1.5,0
					l0.4-0.2c0.2,0-0.2,0.2,0,0.1c0.5-0.2,0.6-0.2,1.2,0.2c0.2,0.1,0.3,0.3,0.5,0.3c0.1,0,0.1,0.1,0.2,0c0.1,0,0.2,0,0.2,0l0.2,0.1
					c0.2,0,0.4,0,0.5-0.1s0.4-0.1,0.4-0.2c0-0.3-0.2-0.5-0.3-0.6L42.1,93l0,0L42,92.9c-0.2-0.4-0.1-1.1,0.2-2.1
					c0.5-1.4,0.4-2.7-0.4-4c0.2-0.3,0.3-0.5,0.3-0.8l0.9-0.4l0,0C43.3,85.7,43.4,85.7,43.4,85.5L43.4,85.5
					C43.4,85.6,43.4,85.6,43.4,85.5L43.4,85.5L43.4,85.5z"/>
				<path class="st10" d="M40.5,93.8h-0.2v-0.1c0.2-0.8-0.3-2-0.7-2.3l-0.1-0.1l0.1-0.2l0.1,0.1C40.3,91.6,40.7,92.9,40.5,93.8
					L40.5,93.8z"/>
				<path class="st10" d="M40.5,93.6h-0.2v-0.1c0-0.4,0-0.6-0.1-0.9v-0.2c0-0.1,0-0.1,0-0.2c-0.1-0.5-0.2-1.3-0.5-1.9v-0.1l0.2-0.1
					l0.1,0.1c0.3,0.6,0.4,1.5,0.5,2c0,0.1,0,0.2,0,0.2v0.2c0,0.3,0.1,0.5,0.1,0.9L40.5,93.6z"/>
				<path class="st10" d="M41.3,93.3L41.3,93.3c-0.2-0.2-0.2-0.5-0.2-1.2c0-0.1,0-0.3,0-0.4v-0.9h0.2v0.9c0,0.1,0,0.2,0,0.4
					c0,0.3,0,0.9,0,1V93.3L41.3,93.3z"/>
				<path class="st10" d="M42.2,93.2L42.2,93.2c-0.4-0.7-0.1-1.8,0.1-2.4c0.5-1.3,0.3-2.6-0.4-3.9v-0.1c0.2-0.3,0.4-0.7,0.2-1.2
					c-0.1-0.4-0.4-0.6-0.8-0.7c0,0,0,0-0.6-0.7l-0.2,0.7L40.4,85l-1.1,0.6h-0.1l-0.6-0.4l0,0l0.3,1v0.1c-0.2,0.3-0.2,0.7,0,1
					c0.1,0.2,0.4,0.4,0.7,0.4l0.1,0.1c0.1,0.6-0.3,1.3-0.8,2c-0.6,0.8-1.2,1.8-1,2.8v0.1l-0.2,0.1v-0.1c-0.3-1.2,0.4-2.1,1-3
					c0.4-0.6,0.8-1.2,0.8-1.7c-0.4,0-0.6-0.2-0.8-0.5s-0.2-0.8-0.1-1.2l-0.3-1.1l0.1-0.1l0.2-0.1h0.1l0.7,0.4l1-0.5l0.2-0.9l0.1-0.1
					h0.1l0.1,0.1c0,0,0.4,0.6,0.5,0.8c0.5,0.1,0.8,0.4,1,0.8c0.1,0.4,0.1,0.9-0.2,1.3c0.8,1.3,0.9,2.6,0.4,4c-0.3,1-0.4,1.7-0.2,2.1
					l0.1,0.1L42.2,93.2z"/>
				<g>
					<path class="st10" d="M41.6,85.5c-0.1,0.4-0.5,0.7-1.1,0.6c-0.1-0.2,0.1-0.5,0.3-0.6C41.1,85.3,41.4,85.3,41.6,85.5z M41,85.9
						c0-0.1-0.1-0.2-0.1-0.3c-0.1,0.1-0.1,0.2-0.1,0.3C40.8,86,40.9,85.9,41,85.9z M41.3,85.8c0.1-0.1,0.1-0.1,0.2-0.2
						c-0.1-0.1-0.2-0.1-0.3-0.1C41.3,85.5,41.3,85.6,41.3,85.8z"/>
					<path class="st10" d="M38.9,86.8c0-0.3,0.2-0.5,0.5-0.6c0.2-0.1,0.5,0,0.6,0.1C39.9,86.8,39.3,87,38.9,86.8z M39.1,86.7
						c0.1,0,0.2,0.1,0.3,0c-0.1-0.1-0.2-0.2-0.1-0.3C39.1,86.5,39.1,86.6,39.1,86.7z M39.9,86.4L39.9,86.4c-0.1-0.1-0.2-0.1-0.3-0.1
						c0,0.1,0.1,0.2,0.1,0.3C39.8,86.5,39.8,86.4,39.9,86.4z"/>
					<path class="st10" d="M40.2,87.1C40.2,87.1,40.3,87.2,40.2,87.1c0.2,0.2,0.3,0.2,0.4,0.1c0.1-0.1,0.1-0.2,0.1-0.3
						c0-0.1-0.1-0.1-0.2-0.1c-0.2-0.1-0.1-0.2,0-0.2c0,0,0.1,0,0.1-0.1c0.1,0,0.1,0,0.2,0.1v0.1c0,0.1,0,0.1,0.1,0.2
						c0.2,0.1,0.4,0,0.4-0.2l0,0c0,0,0,0,0.1-0.1c0,0,0,0,0,0.1c0,0.2-0.1,0.3-0.3,0.3c-0.1,0-0.2,0-0.2,0c0,0.1-0.1,0.1-0.1,0.2
						c-0.1,0.1-0.3,0.2-0.5,0.1C40.2,87.3,40.1,87.2,40.2,87.1z"/>
				</g>
				<g>
					<path id="XMLID_7_" class="st10" d="M42.2,85.8v-0.2v-0.2l-0.1-0.2v-0.1l0,0c0,0,0,0,0.1,0c0.1-0.1,0.2-0.1,0.2-0.2l0,0
						c0.1-0.1,0.2-0.1,0.2-0.2c0,0,0.1-0.1,0.2-0.1l0,0l0,0l0,0l0,0l-0.1,0.1c-0.2,0.2-0.5,0.4-0.5,0.4v0.1l0.1,0.1l0,0
						c0,0,0,0,0.1,0l0.9-0.5l0,0v0.1l0,0l0,0l0,0c-0.1,0.1-0.5,0.3-0.8,0.5c0,0,0,0,0,0.1L42.2,85.8C42.3,85.9,42.3,85.9,42.2,85.8
						c0.1,0.1,0.1,0.1,0.2,0.1c0.5-0.3,0.9-0.4,1-0.4l0,0l0,0l0,0l0,0l0,0l-0.9,0.4l0,0L42.2,85.8z"/>
					<path class="st10" d="M42.3,86.2l-0.1-0.3v-0.2v-0.2L42,85.3V85v0.2l0,0l0,0c0.1-0.1,0.2-0.1,0.2-0.2l0,0
						c0.1-0.1,0.2-0.1,0.2-0.2c0.1-0.1,0.2-0.1,0.2-0.1h0.1v0.1l-0.1,0.1c-0.2,0.2-0.5,0.4-0.5,0.4s0,0,0,0.1l0.1,0.1l0,0l0,0
						l0.9-0.5l0,0v0.1l0,0l0,0l0,0c-0.1,0.1-0.5,0.3-0.8,0.5l0,0v0.2l0,0l0,0c0.5-0.3,0.9-0.4,1-0.4l0,0l0,0l0,0l0,0c0,0,0,0,0,0.1
						l0,0L42.3,86.2C42.4,86.1,42.4,86.1,42.3,86.2L42.3,86.2z M42.2,85.8l0.1,0.2l0,0l0.9-0.4l0,0l0,0l0,0l0,0
						c-0.1,0-0.5,0.1-0.9,0.4h-0.1C42.3,85.9,42.3,85.9,42.2,85.8L42.2,85.8c0-0.1,0-0.2,0.1-0.2c0.4-0.2,0.7-0.4,0.8-0.5l0,0l0,0
						c0,0,0,0,0-0.1l-0.8,0.5c0,0,0,0-0.1,0c0,0,0,0-0.1-0.1v-0.1v0.1v0.2L42.2,85.8z M42.1,85.2L42.1,85.2v0.2
						C42.1,85.3,42.1,85.3,42.1,85.2c0.1,0.1,0.4-0.1,0.6-0.3c0.1-0.1,0.1-0.1,0.1-0.1l0,0l-0.1,0.1c-0.1,0.1-0.1,0.1-0.2,0.2l0,0
						C42.3,85.1,42.2,85.1,42.1,85.2L42.1,85.2L42.1,85.2z"/>
				</g>
				<g>
					<path id="XMLID_3_" class="st10" d="M39,87.8C38.9,87.8,38.9,87.8,39,87.8L39,87.8c-0.3,0.1-0.6,0.4-0.9,0.5c0,0,0,0-0.1,0l0,0
						l0.8-0.6l0,0l0,0l-0.1-0.1h-0.1c-0.1,0.1-0.3,0.2-0.6,0.3l0,0l0,0C37.9,88,37.8,88,37.8,88l0,0l0,0v-0.1l0,0c0,0,0.1,0,0.1-0.1
						l0.7-0.4l0,0c0,0,0,0,0-0.1v-0.1c0-0.1,0-0.1,0-0.1l0,0l0,0c-0.1,0.1-0.1,0-0.2,0.1c-0.4,0-0.4,0.1-0.5,0.1s-0.1,0.1-0.2,0.1
						l0,0c0,0,0,0-0.1,0l0,0l0,0c0,0,0,0,0-0.1l0,0l0.8-0.5c0,0,0,0,0-0.1l0.5,0.8L39,87.8z"/>
					<path class="st10" d="M38.1,88.3C38,88.3,38,88.3,38.1,88.3L38.1,88.3l0.7-0.6l0,0l0,0l-0.1-0.1c0,0,0,0-0.1,0h-0.1
						c-0.1,0.1-0.3,0.2-0.5,0.3l0,0l0,0C37.9,88,37.8,88,37.8,88l0,0v-0.1v-0.1l0,0c0,0,0.1,0,0.1-0.1l0.7-0.4l0,0v-0.1v-0.1l0,0
						l0,0c-0.1,0-0.1,0-0.1,0s-0.1,0-0.1,0.1c-0.1,0-0.1,0.1-0.2,0.1c0,0-0.1,0-0.1,0.1c-0.1,0-0.1,0.1-0.1,0.1l0,0h-0.1l0,0l0,0
						v-0.1l0,0l0,0l0.8-0.5c0,0,0,0,0-0.1v-0.1l0.5,0.9l0.1,0.2l-0.1-0.1c0,0,0,0-0.1,0l0,0L39,87.8C38.6,88,38.3,88.2,38.1,88.3
						L38.1,88.3z M38,88.3C38.1,88.3,38.1,88.3,38,88.3c0.3-0.1,0.5-0.3,0.7-0.4l0.1-0.1l0,0c0,0,0,0,0.1,0v-0.1l-0.4-0.8l0,0
						l-0.8,0.5c0,0,0,0,0,0.1c0,0,0,0,0.1,0l0,0c0,0,0.1,0,0.2-0.1c0.1,0,0.1,0,0.1-0.1c0,0,0.1,0,0.2-0.1c0.1,0,0.1,0,0.1-0.1h0.1
						l0,0l0,0c0,0,0,0,0,0.1v0.1v0.1l0,0l-0.7,0.4c-0.1,0-0.1,0.1-0.1,0.1l0,0c0,0,0,0,0,0.1l0,0c0,0,0.1,0,0.2-0.1l0,0l0,0
						c0.2-0.1,0.4-0.2,0.5-0.3h0.1h0.1l0.1,0.1c0,0,0,0,0,0.1c0,0,0,0,0,0.1L38,88.3z"/>
				</g>
				<g>
					<path class="st10" d="M37.8,92.5c-1.2,0.3-0.8,1.7,0.6,1.7c0.6-0.1,1.5-0.7,2.5-0.2c0.7,0.4,1.2,0.1,1.3-0.3
						c0.1-0.6-0.8-0.7-0.8-0.7c0.4,0.6,0,0.5-0.1,0.4c-1.7-1-2.5,0.3-2.9-0.1"/>
					<path class="st10" d="M41.5,94.3c-0.2,0-0.5-0.1-0.7-0.2c-0.6-0.3-1.2-0.2-1.7,0c-0.2,0.1-0.5,0.2-0.7,0.2
						c-0.9,0-1.4-0.5-1.5-0.9c-0.1-0.5,0.2-0.9,0.8-1h0.1l0.1,0.2h-0.1c-0.4,0.1-0.7,0.4-0.6,0.7c0.1,0.4,0.5,0.7,1.2,0.7
						c0.2,0,0.4-0.1,0.6-0.2c0.5-0.2,1.2-0.4,1.9,0c0.3,0.2,0.6,0.2,0.9,0.1c0.1-0.1,0.2-0.2,0.2-0.3c0-0.2-0.2-0.4-0.4-0.5
						c0,0.1,0.1,0.2,0,0.3c-0.1,0.1-0.4,0.1-0.4,0c-1-0.6-1.7-0.3-2.2-0.1c-0.3,0.1-0.6,0.2-0.8,0l-0.1-0.1l0.2-0.2l0.1,0.1
						c0.1,0.1,0.3,0,0.6-0.1c0.5-0.2,1.3-0.5,2.4,0.2h0.1c0,0,0-0.1-0.2-0.3l0.1-0.2c0.3,0.1,0.9,0.3,0.9,0.8c0,0.2-0.2,0.4-0.4,0.5
						C41.8,94.3,41.7,94.3,41.5,94.3z"/>
				</g>
				<path class="st10" d="M42.2,94.2c0,0-0.1,0-0.2,0V94c0.4,0,0.5-0.1,0.5-0.1l0,0c0-0.2-0.1-0.3-0.2-0.4c-0.1-0.1-0.2-0.2-0.2-0.3
					l0.2-0.1c0,0.1,0.1,0.1,0.2,0.2c0.1,0.1,0.3,0.3,0.3,0.6c0,0.1,0,0.2-0.1,0.2C42.6,94.1,42.4,94.2,42.2,94.2z"/>
			</g>
		</g>
	</g>
	<g class="st1">
		<path class="st2" d="M141.9,102.3c0,1.9-22.5,3.5-50.3,3.5s-50.3-1.6-50.3-3.5s22.5-3.5,50.3-3.5S141.9,100.3,141.9,102.3"/>
	</g>
	<g>
		<path class="st11" d="M135.7,89.5c-1.1-1.4-2.6-2.5-4.5-3.3c0.3-1.8,0.4-3.5,0.4-5.1c0.1-5.2-1-9.4-2.6-13
			c-1.2-2.7-2.6-4.7-4.1-6.8c-2.5-3.6-10.8-10.1-10.1-15.9c1.6,0,3.8-0.8,4.8-1.5c0.2,0.2,3.3,2.6,3.8,3c1,0.8,2,1.4,3.1,2
			c0.2,0.1,0.4,0.2,0.6,0.3c0.3,0.1,0.5,0,0.7-0.1c0.1-0.1,0.7-0.5,0.9-0.6c-0.2-0.2-2.7-2.2-3.1-2.5s-4.1-3.3-4.3-3.4l0,0l0.5-0.5
			c0.4-0.4,0.4-0.5,0.7-0.9c0.1-0.1,0.2-0.1,0.3,0c0.1,0.1,3,1.9,3.2,1.9c1.4,0.8,2.9,1.5,3.2,1.7c0.4,0.2,0.9,0.5,1.3,0.6
			c0.3,0.1,0.6,0.1,0.8,0.2c0-0.1,0.2-0.6,0.3-0.9c0.4-1.1-1.4-1.8-1.7-1.9c-0.3-0.1-3.9-2.2-4.3-2.4c-0.1-0.1-1.8-1-2-1.1
			s-0.2-0.1-0.1-0.3c0,0,0.2-0.4,0.3-0.8c0.1-0.3,0.2-0.6,0.2-0.7c0.5,0.3,1.3,0.5,2.2,1c0.9,0.5,1.7,1,1.9,1.2
			c0.1,0.1,0.7,0.4,1.3,0.7c0.9,0.4,1.9,1,2.2,1.1l0.4-0.8c0.2-0.4,0-0.9-0.1-1l-7.6-4.5c0.2-1.2-0.3-3.8-1-5.5l2.8-9.6
			c0.1-0.3,0.1-0.5,0.1-0.8c0.1-1.3-1.1-2.4-2.4-2.4c-0.5,0-0.9,0.2-1.2,0.4l-6.4,3.6l-9-5l-1.4-7.2c-0.2-1-0.7-1.9-2.1-2.1
			c-0.6-0.1-1.6,0.1-2.2,1L97,14.3c-2,0.3-3.9,1.1-5.4,2.3c-0.5,0.4-1,0.8-1.4,1.3c-0.7-0.6-1.4-1.1-2-1.6l0,0c0,0-1.3-0.9-2.3-1.9
			c0,0-0.4-0.3-0.7-0.5c-0.2-0.1-0.4-0.2-0.5-0.3c-0.4-0.2-0.4-0.2-0.8-0.2h-0.6l0.3,0.8l0,0c0,0,0.3,0.8,1.3,1.6l0,0
			c1,1,2.1,1.9,3,2.7c0.5,0.4,1.2,0.9,1.2,0.9c-0.3,0.5-0.6,1-0.8,1.6l-7.8-5.1C80.2,16.1,80,16.8,80,17c0,0.3,0,0.7,0.2,0.7
			c0.1,0.1,0.4,0.3,0.5,0.4c0.1,0.1,0.8,0.6,1,0.8c1.4,1,3.7,2.5,6,3.9c-0.2,0.6-0.3,1.2-0.4,1.8c-1.9-1.1-3.7-1.9-5.2-2.5
			c-0.8-0.3-1.5-0.5-2-0.7c-0.4-0.1-1-0.2-1.1-0.2s-0.3,0-0.4,0L78,21.4V22c0.1,0.3,0.5,1,0.7,1.1l8.4,3.8c0.1,3,1.1,5.5,2.3,7.6
			c-4.4,6.9-7,14.5-7.2,22.7c-0.1,4.8,0.7,9.7,2.3,14.8c0.6,1.8,1.3,4.2,1.8,6.7s0.9,5.3,0.9,7.6c0,2.1-0.4,4.9-2.5,6.7
			c-0.6,0.5-1.3,1.1-1.9,2c-0.9,1.2-1.2,2.9-1.2,3.8c0,1.4,0.7,2,1,2.3c1.4,1.6,5.6,1.6,6.2,1.6c0,0,5.3,0.4,6.7,0.4
			c2.2,0,4.3-0.3,7.2-1.1c2.7-0.7,4.9-0.9,6.8-0.9c5.7,0,10.5,3.7,16,3.7c1.8,0,3.5-0.2,5-0.7c2.2-0.8,4-2.1,5.2-3.7
			s1.9-3.5,1.9-5.4C137.6,93.2,137,91.2,135.7,89.5z"/>
		<path class="st12" d="M105.6,39.4c-2.1,0-3.3-1.7-4-2.9l-0.1-0.2c-0.4,0-0.7,0.1-1,0.1c-0.9,0-1.7-0.2-2.3-0.5
			c-1.2-0.6-1.9-1.7-1.9-2.9c0-0.5,0.2-0.7,0.4-0.8l0.1-0.1l0,0l0,0c0.3,0.1,0.5,0.1,0.7,0.3l0.1,0.1c0.1,0.1,0.2,0.2,0.2,0.4
			c0,0.2,0.1,0.6,0.1,0.7c0.2,0.5,0.6,1.5,1.8,1.5c1.4,0,2.5-0.9,2.5-1.7c0-0.1,0-0.2,0-0.3c0-0.3-0.1-0.6,0-1v-0.2
			c0.1-0.6,0.2-1.4,1-1.4c0.5,0,2.9,1,2.9,2.1c0,0.8-0.6,1-1.2,1.2c-0.7,0.3-1.4,0.5-1.7,1.6c-0.1,0.6,0.1,1.3,0.5,1.9
			c0.4,0.5,0.9,0.8,1.5,0.8c1,0,1.3-0.3,1.7-0.8c0.1-0.1,0.1-0.1,0.2-0.2c0.1-0.1,0.3-0.3,0.6-0.3l0,0l0,0c0.1,0.1,0.5,0.4,0.5,0.9
			C108.3,38.4,107.3,39.4,105.6,39.4z M135.7,89.5c-1.1-1.4-2.6-2.5-4.5-3.3c0.3-1.8,0.4-3.5,0.4-5.1c0.1-5.2-1-9.4-2.6-13
			c-1.2-2.7-2.6-4.7-4.1-6.8c-2.5-3.6-10.8-10.1-10.1-15.9c1.6,0,3.8-0.8,4.8-1.5c0.2,0.2,3.3,2.6,3.8,3c1,0.8,2,1.4,3.1,2
			c0.2,0.1,0.4,0.2,0.6,0.3c0.3,0.1,0.5,0,0.7-0.1c0.1-0.1,0.7-0.5,0.9-0.6c-0.2-0.2-2.7-2.2-3.1-2.5s-4.1-3.3-4.3-3.4l0,0l0.5-0.5
			c0.4-0.4,0.4-0.5,0.7-0.9c0.1-0.1,0.2-0.1,0.3,0c0.1,0.1,3,1.9,3.2,1.9c1.4,0.8,2.9,1.5,3.2,1.7c0.4,0.2,0.9,0.5,1.3,0.6
			c0.3,0.1,0.6,0.1,0.8,0.2c0-0.1,0.2-0.6,0.3-0.9c0.4-1.1-1.4-1.8-1.7-1.9c-0.3-0.1-3.9-2.2-4.3-2.4c-0.1-0.1-1.8-1-2-1.1
			s-0.2-0.1-0.1-0.3c0,0,0.2-0.4,0.3-0.8c0.1-0.3,0.2-0.6,0.2-0.7c0.5,0.3,1.3,0.5,2.2,1c0.9,0.5,1.7,1,1.9,1.2
			c0.1,0.1,0.7,0.4,1.3,0.7c0.9,0.4,1.9,1,2.2,1.1l0.4-0.8c0.2-0.4,0-0.9-0.1-1l-7.6-4.5c0.2-1.2-0.3-3.8-1-5.5l2.8-9.6
			c0.1-0.3,0.1-0.5,0.1-0.8c0.1-1.3-1.1-2.4-2.4-2.4c-0.5,0-0.9,0.2-1.2,0.4l-6.4,3.6l-9-5l-1.4-7.2c-0.2-1-0.7-1.9-2.1-2.1
			c-0.6-0.1-1.6,0.1-2.2,1L97,14.3c-2,0.3-3.9,1.1-5.4,2.3c-0.5,0.4-1,0.8-1.4,1.3c-0.7-0.6-1.4-1.1-2-1.6l0,0c0,0-1.3-0.9-2.3-1.9
			c0,0-0.4-0.3-0.7-0.5c-0.2-0.1-0.4-0.2-0.5-0.3c-0.4-0.2-0.4-0.2-0.8-0.2h-0.6l0.3,0.8l0,0c0,0,0.3,0.8,1.3,1.6l0,0
			c1,1,2.1,1.9,3,2.7c0.5,0.4,1.2,0.9,1.2,0.9c-0.3,0.5-0.6,1-0.8,1.6l-7.8-5.1C80.2,16.1,80,16.8,80,17c0,0.3,0,0.7,0.2,0.7
			c0.1,0.1,0.4,0.3,0.5,0.4c0.1,0.1,0.8,0.6,1,0.8c1.4,1,3.7,2.5,6,3.9c-0.2,0.6-0.3,1.2-0.4,1.8c-1.9-1.1-3.7-1.9-5.2-2.5
			c-0.8-0.3-1.5-0.5-2-0.7c-0.4-0.1-1-0.2-1.1-0.2s-0.3,0-0.4,0L78,21.4V22c0.1,0.3,0.5,1,0.7,1.1l8.4,3.8c0.1,3,1.1,5.5,2.3,7.6
			c-4.4,6.9-7,14.5-7.2,22.7c-0.1,4.8,0.7,9.7,2.3,14.8c0.6,1.8,1.3,4.2,1.8,6.7s0.9,5.3,0.9,7.6c0,2.1-0.4,4.9-2.5,6.7
			c-0.6,0.5-1.3,1.1-1.9,2c-0.9,1.2-1.2,2.9-1.2,3.8c0,1.4,0.7,2,1,2.3c1.4,1.6,5.6,1.6,6.2,1.6c0,0,5.3,0.4,6.7,0.4
			c2.2,0,4.3-0.3,7.2-1.1c2.7-0.7,4.9-0.9,6.8-0.9c5.7,0,10.5,3.7,16,3.7c1.8,0,3.5-0.2,5-0.7c2.2-0.8,4-2.1,5.2-3.7
			s1.9-3.5,1.9-5.4C137.6,93.2,137,91.2,135.7,89.5z M132.4,99.9c-0.8,0.7-1.7,1.2-2.9,1.6c-1.1,0.4-2.5,0.6-4,0.6
			c-5,0-10-3.7-16-3.7c-6.1,0-9.2,2-14,2c-3.3,0-4.1-1.6-4.1-3.5c0-1.7,1.1-3,2.7-3.9c0,1.2,1.3,2,2.4,2c2.2,0,5.1-2,12.6-2
			c6.6,0,12.5,3.3,14.7,3.3c1.9,0,2.7-1.3,2.7-1.9c0-1-0.7-1.5-1.4-1.5c-0.7,0-1.1,0.5-1.1,0.6c-2,0-8.6-4.1-18.4-3.1
			c0.4-2.3,1.1-4.6,2-6.7c0.7-1.6,1.5-3.1,2.4-4.3c0.9-1.2,1.8-2.1,2.6-2.6c0.6-0.4,0.8-1.2,0.4-1.8c-0.4-0.6-1.2-0.8-1.8-0.4
			c-1.2,0.7-2.3,1.9-3.3,3.2c-0.1,0.2-0.3,0.4-0.4,0.6c0.2-1.2,0.5-2.5,0.8-3.8c0.7-2.8,1.7-5.6,3-7.7c0.4-0.6,0.2-1.4-0.4-1.8
			c-0.6-0.4-1.4-0.2-1.8,0.4c-1,1.6-1.7,3.5-2.4,5.5c-1.7,4.7-3.7,19.3-3.8,19.6c-1.8,0.3-3.8,0.8-5.8,1.4c0.5-2.5,0.2-7.4,0.4-12.4
			c0.1-3.6,0.3-6.7,0.4-7.2c0-0.7,0.1-1.2,0.1-1.2c0-0.7-0.5-1.3-1.2-1.3s-1.3,0.5-1.3,1.2c0,0-0.5,10.1-0.5,12.6
			c0,0.9-0.1,4.9-0.1,5.9c-6.3,2.3-7,7-5.6,10.4c-1.3-0.1-3.9-0.1-4.8-0.9c0-2.3,1.4-3,3.2-4.9c1-1,2.4-4.1,2.4-7.6
			c0-10.1-5-17.3-5-29.3c0-2.7,0.6-12.6,7.7-22.7c-2-3-2.9-5-2.9-8.6c0-2.4,1.3-8.4,8.8-9.1l4.5-6.9l1.5,7.6l11.5,6.4l6.8-3.8
			l-2.7,9.5c0.6,1.5,1.2,3,1.1,4.8c0,6.6-5.2,8.5-9.1,8c-1.2,4.5,0.2,7.9,1.7,10.1c1.3,1.9,4.3,5.2,7.3,8.8
			c3.7,4.6,7.5,10.2,7.5,18.9c0,2-0.4,5.5-0.6,6.1c-0.4,1.2,0.3,1.7,1.1,2c2.1,0.8,5.5,2.4,5.5,6.5
			C134.7,96.8,133.9,98.6,132.4,99.9z M102.5,27.4c-4.1,0-7.4-2.5-8.1-6.1l0,0l0,0c1.2-0.8,2.5-1.2,3.8-1.2c1.4,0,2.7,0.4,3.7,1.2
			c2,1.6,3,4.2,2.4,6l0,0l0,0C103.7,27.3,103.1,27.4,102.5,27.4L102.5,27.4z M100.8,25.9c0.8,0,1.6,0.1,2.4,0.2c0-1.2-0.6-2-1.1-2.8
			C101.6,24.2,101.2,25,100.8,25.9z M95.8,21.9c0.3,0.8,0.6,1.6,1.5,2.2c0-1.2,0.4-2.1,1.7-2.7C97.6,21.2,96.7,21.4,95.8,21.9z
			 M116.7,35.2c-3.2,0-6.3-2.3-7.5-5.6l0,0l0,0c1-0.9,2.4-1.5,4-1.5c0.8,0,1.5,0.1,2.2,0.4c2.5,0.9,3.8,2.8,4.3,6.1l0,0l0,0
			C118.7,35,117.7,35.2,116.7,35.2L116.7,35.2z M113.5,29.4c-0.9,0.2-1.7,0.3-2.6,0.5c0,0.1-0.1,0.3-0.1,0.4c0.5,0.6,1,1.2,1.4,1.7
			C112.6,31.1,113,30.3,113.5,29.4z M115.4,33.8c1.1,0.4,1.9,0.3,3-0.1c-0.3-1.1-0.5-2-1.5-2.9C117,32.2,116.6,33.1,115.4,33.8z"/>
	</g>
	<path class="st13" d="M83.5,93.9l-0.4-0.2c-1.7-0.6-3.8-1.2-6-1.7c-0.4-0.2-0.9-0.4-1.3-0.4c-0.2-0.4-0.5-0.7-1-0.9
		c-0.6-0.2-1.2-0.3-1.9-0.1c-0.1,0-0.2,0.1-0.4,0.1c-0.1-0.2-0.3-0.4-0.5-0.5c-0.4-0.3-1-0.5-1.6-0.5l0,0c-0.3,0-0.6,0-0.9,0.1
		c-0.1-0.3-0.2-0.5-0.4-0.8c-0.4-0.4-0.9-0.6-1.4-0.8c-1.1-0.3-2.1,0-2.5,0.6c-0.2-0.1-0.5-0.1-0.7-0.1c-0.5,0-1,0.1-1.4,0.3
		c-0.2-0.1-0.5-0.1-0.8-0.1c-1.3,0-2.3,0.7-2.3,1.7c0,0.1,0,0.2,0,0.3c-0.1,0-0.1,0-0.2,0c-0.5-0.1-1.1-0.2-1.6,0
		c-0.3,0.1-0.5,0.2-0.8,0.3c-3.3,0.4-6.4,1.2-9,2.5L48,94v7.5l0.5,0.1c0.1,0,6.2,1.7,15.9,1.7c5.3,0,11.7-0.5,18.8-2l0.5-0.1
		L83.5,93.9z"/>
	<g>
		<path class="st12" d="M64.1,103.6c-9.7,0-15.8-1.6-15.9-1.7l-0.5-0.1v-7.5l0.4-0.2c10-4.7,26.6-3,34.7,0l0.4,0.2l0.2,7.3l-0.5,0.1
			C75.8,103.1,69.4,103.6,64.1,103.6"/>
		<path class="st14" d="M49.1,100.8c2.6,0.6,15.5,3.2,33-0.3l-0.2-5.3c-8.8-3.1-24.2-3.9-32.8,0C49.1,95.2,49.1,100.8,49.1,100.8z
			 M65.5,96.9c-3.7,0-7.2-0.1-9.8-0.3c-4.2-0.3-4.5-0.7-4.5-1.3c0-0.6,0.3-1,4.5-1.3c2.6-0.2,6.1-0.3,9.8-0.3c3.7,0,7.2,0.1,9.8,0.3
			c4.2,0.3,4.5,0.7,4.5,1.3c0,0.6-0.3,1-4.5,1.3C72.7,96.8,69.2,96.9,65.5,96.9"/>
		<g>
			<g>
				<defs>
					<path id="SVGID_1_" d="M51,95.6c3.6,0.4,11.6,0.5,14.6,0.5c2.3,0,11.1-0.4,14.7-1.1v-7.4H51V95.6z"/>
				</defs>
				<clipPath id="SVGID_2_">
					<use xlink:href="#SVGID_1_"  style="overflow:visible;"/>
				</clipPath>
				<g class="st15">
					<g>
						<g>
							<path class="st12" d="M72.7,95c-0.4,0-0.8-0.1-1.1-0.2c-0.6-0.2-1-0.7-1.1-1.2s0-1.1,0.5-1.6c0.4-0.5,1-0.8,1.6-1l0,0
								c0.7-0.2,1.3-0.1,1.9,0.1s1,0.7,1.1,1.2s0,1.1-0.5,1.6c-0.4,0.5-1,0.8-1.6,1C73.2,95,72.9,95,72.7,95z"/>
						</g>
						<path class="st16" d="M72.7,91.8c-0.5,0.1-0.9,0.4-1.2,0.7c-0.2,0.3-0.3,0.6-0.3,0.9c0.1,0.3,0.3,0.5,0.7,0.7
							c0.4,0.2,0.9,0.2,1.4,0.1s0.9-0.4,1.2-0.7c0.2-0.3,0.3-0.6,0.3-0.9c-0.1-0.3-0.3-0.5-0.7-0.7C73.7,91.7,73.2,91.7,72.7,91.8
							L72.7,91.8z"/>
					</g>
					<g>
						<g>
							<path class="st12" d="M70.1,93.7C70,93.7,70,93.7,70.1,93.7c-0.7,0-1.3-0.2-1.7-0.5c-0.5-0.4-0.7-0.8-0.7-1.3s0.3-1,0.8-1.3
								c0.4-0.3,1-0.5,1.6-0.4l0,0c0.6,0,1.2,0.2,1.6,0.5c0.5,0.4,0.7,0.8,0.7,1.3s-0.3,1-0.8,1.3C71.2,93.5,70.6,93.7,70.1,93.7z"
								/>
						</g>
						<path class="st16" d="M70,90.8c-0.4,0-0.8,0.1-1.1,0.3c-0.3,0.2-0.4,0.4-0.4,0.7c0,0.3,0.1,0.5,0.4,0.7s0.7,0.4,1.2,0.4
							c0.4,0,0.9-0.1,1.2-0.3c0.3-0.2,0.4-0.4,0.4-0.7c0-0.3-0.1-0.5-0.4-0.7C70.9,90.9,70.5,90.8,70,90.8L70,90.8L70,90.8z"/>
					</g>
					<g>
						<g>
							<path class="st12" d="M76.5,96.5c-0.6,0-1.2-0.2-1.8-0.6c-1.2-0.8-1.6-2.3-1-3.2c0.6-0.9,2.1-1,3.3-0.1
								c1.2,0.8,1.6,2.3,1,3.2C77.7,96.3,77.1,96.5,76.5,96.5z"/>
						</g>
						<path class="st16" d="M75.3,92.8c-0.4,0-0.7,0.1-0.9,0.4c-0.4,0.5,0,1.5,0.8,2c0.8,0.6,1.8,0.6,2.2,0.1c0.4-0.5,0-1.5-0.8-2
							l0,0C76.1,93,75.7,92.8,75.3,92.8z"/>
					</g>
					<g>
						<g>
							<path class="st12" d="M61.8,96.7c-0.3,0-0.5-0.1-0.8-0.2c-1-0.5-1.2-2-0.5-3.3c0.3-0.6,0.8-1.1,1.3-1.3
								c0.6-0.3,1.2-0.3,1.7,0s0.8,0.8,0.9,1.4s0,1.3-0.4,1.9c-0.3,0.6-0.8,1.1-1.3,1.3C62.4,96.6,62.1,96.7,61.8,96.7z"/>
						</g>
						<path class="st16" d="M62.7,92.5c-0.2,0-0.4,0-0.5,0.1c-0.4,0.2-0.7,0.5-1,1c-0.5,0.9-0.4,1.9,0.2,2.2c0.3,0.1,0.6,0.1,0.9,0
							c0.4-0.2,0.7-0.5,1-1c0.2-0.4,0.3-0.9,0.3-1.4c-0.1-0.4-0.2-0.7-0.5-0.8C62.9,92.5,62.8,92.5,62.7,92.5z"/>
					</g>
					<g>
						<g>
							<path class="st12" d="M58.1,95.4c-1.1,0-2-0.6-2.2-1.4c-0.1-0.5,0-1.1,0.5-1.6c0.4-0.5,1-0.8,1.6-1c1.4-0.3,2.8,0.3,3,1.3
								c0.3,1.1-0.7,2.2-2.1,2.6C58.6,95.3,58.3,95.4,58.1,95.4z"/>
						</g>
						<path class="st16" d="M58.7,92.1c-0.2,0-0.4,0-0.6,0.1l0,0c-0.5,0.1-0.9,0.4-1.2,0.7c-0.2,0.3-0.3,0.6-0.3,0.9
							c0.2,0.6,1.1,1,2,0.7c1-0.2,1.6-1,1.5-1.6C60,92.4,59.4,92.1,58.7,92.1z"/>
					</g>
					<g>
						<g>
							<path class="st12" d="M58.1,98.4c-0.3,0-0.5-0.1-0.8-0.2c-1-0.5-1.2-2-0.5-3.3c0.3-0.6,0.8-1.1,1.3-1.3
								c0.6-0.3,1.2-0.3,1.7,0s0.8,0.8,0.9,1.4c0.1,0.6,0,1.3-0.4,1.9C59.8,97.9,58.9,98.4,58.1,98.4z"/>
						</g>
						<path class="st16" d="M59,94.3c-0.2,0-0.4,0-0.5,0.1c-0.4,0.2-0.7,0.5-1,1c-0.5,0.9-0.4,1.9,0.2,2.2c0.6,0.3,1.4-0.2,1.9-1
							c0.2-0.4,0.3-0.9,0.3-1.4c-0.1-0.4-0.2-0.7-0.5-0.8C59.3,94.3,59.2,94.3,59,94.3z"/>
					</g>
					<g>
						<g>
							<path class="st12" d="M68.9,97.2c-0.4,0-0.8-0.1-1-0.4c-0.3-0.3-0.4-0.9-0.2-1.4c0.2-0.5,0.5-1,0.9-1.4
								c0.5-0.4,1-0.6,1.5-0.7c0.6-0.1,1.1,0.1,1.4,0.4l0,0c0.3,0.3,0.4,0.9,0.2,1.4c-0.2,0.5-0.5,1-0.9,1.4c-0.5,0.4-1,0.6-1.5,0.7
								C69.1,97.2,69,97.2,68.9,97.2z"/>
						</g>
						<path class="st16" d="M70.4,94c-0.1,0-0.1,0-0.2,0c-0.3,0.1-0.7,0.3-1.1,0.5c-0.3,0.3-0.6,0.6-0.7,1c-0.1,0.3-0.1,0.5,0,0.6
							s0.3,0.2,0.6,0.1c0.3-0.1,0.7-0.3,1.1-0.5s0.6-0.6,0.7-1c0.1-0.3,0.1-0.5,0-0.6l0,0C70.8,94.1,70.6,94,70.4,94z"/>
					</g>
					<path class="st12" d="M73,97c-1.1,0-2-0.6-2.2-1.4c-0.1-0.5,0-1.1,0.5-1.6c0.4-0.5,1-0.8,1.6-1l0,0c1.4-0.3,2.8,0.3,3,1.3
						c0.3,1.1-0.7,2.2-2.1,2.6C73.5,96.9,73.2,97,73,97z"/>
					<path class="st16" d="M73.6,93.7c-0.2,0-0.4,0-0.6,0.1l0,0c-0.5,0.1-0.9,0.4-1.2,0.7c-0.2,0.3-0.3,0.6-0.3,0.9
						c0.2,0.6,1.1,1,2,0.7c1-0.2,1.6-1,1.5-1.6C74.9,94,74.3,93.7,73.6,93.7z"/>
					<g>
						<g>
							<path class="st12" d="M67.4,91.8c-0.3,0-0.6,0-0.9-0.1c-1.3-0.3-2.1-1.3-1.9-2.1l0,0c0.2-0.9,1.4-1.3,2.7-1
								c0.6,0.1,1.1,0.4,1.4,0.8c0.4,0.4,0.6,0.9,0.4,1.3C69.1,91.4,68.3,91.8,67.4,91.8z"/>
						</g>
						<path class="st16" d="M65.5,89.8c-0.1,0.4,0.4,0.9,1.3,1.1s1.6,0,1.7-0.4c0-0.2,0-0.4-0.2-0.6c-0.2-0.3-0.6-0.5-1.1-0.6
							C66.3,89.2,65.5,89.4,65.5,89.8L65.5,89.8z"/>
					</g>
					<g>
						<g>
							<path class="st12" d="M62,92.8C62,92.8,61.9,92.8,62,92.8L62,92.8c-1.3,0-2.3-0.8-2.3-1.8s1-1.7,2.3-1.7
								c0.6,0,1.1,0.2,1.6,0.5s0.7,0.8,0.7,1.3s-0.3,1-0.7,1.3C63.1,92.7,62.5,92.8,62,92.8z"/>
						</g>
						<path class="st16" d="M61.9,92c0.4,0,0.8-0.1,1.1-0.3c0.1-0.1,0.4-0.3,0.4-0.6c0-0.3-0.2-0.5-0.4-0.6
							c-0.3-0.2-0.7-0.3-1.1-0.3c-0.8,0-1.5,0.4-1.5,0.9C60.5,91.6,61.1,92,61.9,92L61.9,92z"/>
					</g>
					<g>
						<g>
							<path class="st12" d="M64.1,92.6L64.1,92.6L64.1,92.6c-0.6,0-1.2-0.2-1.6-0.5c-0.5-0.3-0.7-0.8-0.7-1.3s0.3-1,0.7-1.3
								s1-0.5,1.6-0.4c0.6,0,1.1,0.2,1.6,0.5s0.7,0.8,0.7,1.3s-0.3,1-0.7,1.3C65.2,92.5,64.7,92.6,64.1,92.6z"/>
						</g>
						<path class="st16" d="M64.1,91.8c0.4,0,0.8-0.1,1.1-0.3c0.1-0.1,0.4-0.3,0.4-0.6c0-0.3-0.2-0.5-0.4-0.6
							c-0.3-0.2-0.7-0.3-1.1-0.3s-0.8,0.1-1.1,0.3c-0.1,0.1-0.4,0.3-0.4,0.6c0,0.3,0.2,0.5,0.4,0.6C63.3,91.7,63.7,91.8,64.1,91.8
							L64.1,91.8z"/>
					</g>
					<g>
						<g>
							<path class="st12" d="M66.7,94.9c-0.2,0-0.3,0-0.5-0.1c-0.6-0.1-1.2-0.5-1.6-1c-0.9-1.1-1-2.6-0.2-3.3
								c0.8-0.7,2.3-0.4,3.2,0.7l0,0c0.4,0.5,0.7,1.1,0.8,1.7c0.1,0.7-0.1,1.2-0.6,1.6C67.5,94.7,67.1,94.9,66.7,94.9z"/>
						</g>
						<path class="st16" d="M65.5,90.9c-0.2,0-0.4,0.1-0.6,0.2c-0.5,0.4-0.4,1.4,0.3,2.1c0.3,0.4,0.7,0.6,1.2,0.7
							c0.4,0.1,0.7,0,0.9-0.2c0.2-0.2,0.3-0.5,0.3-0.9s-0.2-0.9-0.6-1.3l0,0C66.6,91.2,66,90.9,65.5,90.9z"/>
					</g>
					<g>
						<g>
							<path class="st12" d="M65.7,97.5c-0.2,0-0.3,0-0.5-0.1c-0.6-0.1-1.2-0.5-1.6-1c-0.4-0.5-0.7-1.1-0.8-1.7
								c-0.1-0.7,0.1-1.2,0.6-1.6c0.8-0.7,2.3-0.4,3.2,0.7c0.4,0.5,0.7,1.1,0.8,1.7c0.1,0.7-0.1,1.2-0.6,1.6
								C66.6,97.4,66.2,97.5,65.7,97.5z"/>
						</g>
						<path class="st16" d="M64.6,93.5c-0.2,0-0.4,0.1-0.6,0.2c-0.2,0.2-0.3,0.5-0.3,0.9s0.2,0.9,0.6,1.3c0.3,0.4,0.7,0.6,1.2,0.7
							c0.4,0.1,0.7,0,0.9-0.2s0.3-0.5,0.3-0.9s-0.2-0.9-0.6-1.3l0,0C65.6,93.8,65,93.5,64.6,93.5z"/>
					</g>
					<g>
						<g>
							<path class="st12" d="M68.6,96.6C68.6,96.6,68.5,96.6,68.6,96.6c-0.5,0-1-0.4-1.2-0.9s-0.3-1-0.3-1.6s0.2-1.1,0.5-1.6
								s0.8-0.7,1.3-0.7l0,0c0.5,0,0.9,0.3,1.1,0.9c0.2,0.5,0.3,1,0.3,1.6s-0.2,1.1-0.5,1.6C69.5,96.4,69,96.6,68.6,96.6z"/>
						</g>
						<path class="st16" d="M68.8,92.7c-0.2,0-0.3,0.1-0.5,0.3c-0.2,0.3-0.3,0.7-0.4,1.1c0,0.4,0,0.9,0.2,1.2
							c0.1,0.2,0.3,0.4,0.5,0.4s0.4-0.1,0.5-0.3c0.2-0.3,0.3-0.7,0.4-1.1c0-0.4,0-0.9-0.2-1.2C69.2,92.9,69,92.7,68.8,92.7
							L68.8,92.7L68.8,92.7z"/>
					</g>
					<g>
						<g>
							<path class="st12" d="M52.9,96.6c-0.3-0.6-0.3-1.5,0-2.4c0.3-0.6,0.7-1.1,1.2-1.5c0.6-0.3,1.2-0.4,1.7-0.2s0.9,0.7,1,1.3
								c0.1,0.6,0.1,1.3-0.2,1.9s-0.7,1.1-1.2,1.5c-0.6,0.3-1.2,0.4-1.7,0.2C53.3,97.2,53.1,96.9,52.9,96.6z"/>
						</g>
						<path class="st16" d="M55.9,93.7c-0.1-0.2-0.3-0.4-0.4-0.4c-0.3-0.1-0.6-0.1-0.9,0.1c-0.4,0.2-0.7,0.6-0.9,1.1
							c-0.4,0.9-0.2,1.9,0.4,2.1c0.3,0.1,0.6,0.1,0.9-0.1c0.4-0.2,0.7-0.6,0.9-1.1l0,0c0.2-0.5,0.2-1,0.1-1.4
							C56,93.9,55.9,93.8,55.9,93.7z"/>
					</g>
				</g>
			</g>
		</g>
	</g>
</g>
</svg>
