<?xml version="1.0" encoding="utf-8"?>
<!-- Generator: Adobe Illustrator 21.1.0, SVG Export Plug-In . SVG Version: 6.00 Build 0)  -->
<svg version="1.1" id="Step_1" xmlns="http://www.w3.org/2000/svg" xmlns:xlink="http://www.w3.org/1999/xlink" x="0px" y="0px"
	 viewBox="0 0 145 101.7" style="enable-background:new 0 0 145 101.7;" xml:space="preserve">
<style type="text/css">
	.st0{opacity:0.5;}
	.st1{fill:#A7A6A6;}
	.st2{fill:#FFFFFF;}
	.st3{fill:#353838;}
</style>
<g>
	<g class="st0">
		<path class="st1" d="M88.3,98.5c0,1.8-8.8,3.2-19.6,3.2c-10.9,0-19.6-1.4-19.6-3.2c0-1.8,8.8-3.2,19.6-3.2S88.3,96.7,88.3,98.5"/>
	</g>
	<g>
		<g>
			<path class="st2" d="M95.8,47.4c0.2-0.9-0.1-1.5-0.4-1.8c-1.2-1.4-3.5-1.9-6.9-1.4c-1.6,0.2-3.1,0.6-3.9,0.8
				c-2.6-3.6-5.3-5-6.7-5.5c0.1-1.7-0.1-3.7-0.6-5.5c-0.5-1.6-1.3-3.7-2.9-4.3c-0.1,0-0.2-0.1-0.3-0.1c-4.4,0.1-6.6,6.8-7.1,8.5
				c-1.5,0.8-2.6,1.8-3.3,2.6l-6.2-3h-0.1c-0.3,0.1-0.5,0.3-0.6,0.5l-0.2,0.3l0.3,0.2c0.1,0.1,0.6,0.2,0.8,0.3l0.2,0.1
				c0.3,0.2,0.8,0.5,1.3,0.8c0.4,0.3,0.7,0.3,0.9,0.5c0.3,0.1,0.6,0.3,1.4,0.7c0.6,0.4,0.8,0.5,1,0.6c0.1,0.1,0.2,0.1,0.3,0.2
				c-0.3,0.6-0.6,1.1-0.9,1.7h-0.1l-5.6-3c-0.5-0.3-1.1-0.5-1.4-0.6h-0.1c-0.4-0.1-0.6,0.1-0.9,0.4l-0.3,0.3l0.2,0.2
				c0.2,0.2,1,0.6,1.9,1.1l0.2,0.1c0.1,0.1,0.2,0.1,0.2,0.1c1.6,1,3.3,1.8,4.4,2.3c0.2,0.1,0.4,0.2,0.5,0.3c0.2,0.1,0.3,0.2,0.2,0.4
				l-0.4,1.4c0,0.1-0.1,0.2-0.2,0.2c-0.1,0-0.2,0-0.2,0l-7.9-2.7v0.4c0,0.1,0,0.5,0.2,0.7c1.7,1,4.5,1.9,6.3,2.5
				c0.5,0.2,0.9,0.3,1.3,0.4h0.1c0,0,0.1,0.1,0.2,0.2c-0.3,3.6,0.6,6.7,1.3,8.5c-6.9,7.7-8,16-7.5,22.6c0,1.3,0.1,2.5,0.2,3.6
				c0.3,3.9,0.4,6.2-1.8,9.4c-0.8,1.2-1,3-0.4,4.1c0.5,0.9,1.4,1.4,2.4,1.4h5.7c0.1,0,0.1,0,0.2,0c1.1,0,2.3,0,2.4,0
				c1.2,0,2.2-0.3,2.8-0.9c0.6,0.6,1.6,0.9,2.8,0.9c0.2,0,3.2,0,4.1,0c0.1,0,0.1,0,0.2,0h5.7c1,0,1.9-0.5,2.4-1.3c0.1,0,0.2,0,0.3,0
				h0.1c3.5,0,6.5-1.5,7.9-3.9c1-1.7,1.6-4.5-0.8-8.6c-0.6-1-0.8-1.8-0.6-2.2c0.2-0.5,1.1-0.6,1.6-0.7c0.4-0.1,1.4-0.3,1.3-1.2
				c-0.2-1.4-1.2-2.4-2.6-2.8c-2-0.6-4.5,0.1-5.9,1.7c-0.4,0.4-0.8,1-1,1.9c-0.3-1.5-1-3.3-2.2-5.3c0.6-4.6,0.5-9.2-1.6-12.4
				c2.1-0.1,3.8-0.6,5.2-1.3l3.7,4l0,0c0.2,0.1,0.3,0.2,0.5,0.2h0.1c0.1,0,0.2,0,0.3,0h0.1l0.2-0.1v-0.2c0-0.4-0.6-1.1-2.4-3.1
				c-0.4-0.5-0.9-1-1.5-1.6c0.6-0.4,1.1-0.7,1.6-1.1c1.9,2.1,4.1,4.2,4.9,4.8l0.1,0.1l0.1,0.1h0.1c0.2,0.1,0.5,0,0.8-0.3l0.3-0.2
				L86.3,59c0.1-0.1,0.2-0.2,0.3-0.3c0.4-0.4,0.7-0.8,1-1.2c0.7,0.6,2.3,2,3.8,3c0.5,0.4,1,0.6,1.3,0.7h0.1h0.1l0.5,0.1l-0.1-0.5
				c0-0.1,0-0.2-1.1-1.2l0,0c-0.6-0.4-1.2-1-1.9-1.6l-0.2-0.2c-0.5-0.5-1.2-1.1-1.9-1.6c0.6-0.9,0.9-1.7,1.1-2.1
				C92.3,53.3,95.5,50.1,95.8,47.4z M80.8,88.3c0.3-1,0.7-2.1,0.9-3.4c0.1,0.3,0.2,0.7,0.4,1c0.2,0.3,0.3,0.7,0.5,1.1
				c0.5,0.9,1.1,2,0.8,2.6c-0.6,1.3-1.7,1.4-2.6,1c-0.2-0.1-0.4-0.2-0.6-0.3C80.3,89.7,80.5,89,80.8,88.3z"/>
			<g>
				<path class="st3" d="M82.3,50.8c-2-0.9-4.4-0.8-5.8,0.3c0.7,3.9,4.3,5.9,8,5.1C85.2,54,84.3,51.7,82.3,50.8z M78.7,53.2
					c-0.3-0.5-0.5-1.1-0.8-1.7c1-0.4,1.9-0.2,2.7-0.1C80,52,79.3,52.6,78.7,53.2z M83.6,55.5c-0.8,0.1-1.6,0.1-2.3-0.3
					c1.1-0.4,1.7-1,1.9-2.2C83.7,53.9,83.8,54.6,83.6,55.5z"/>
				<path class="st3" d="M73.8,49.2c0.9-1.4,0.8-3.5-0.3-4.9c-1.5-1.9-3.7-2.1-6.3-1.7C66.3,46.1,69.4,49.1,73.8,49.2z M73.1,48.3
					c0,0-1.6-0.5-2.1-0.7c0.7-0.6,1.3-1.1,2-1.6C73.4,47,73.1,48.3,73.1,48.3z M68.1,43.3c1-0.1,1.9-0.1,2.9,0.4
					c-1.2,0.2-2,0.8-2.4,1.9C68.1,44.9,67.9,44.2,68.1,43.3z"/>
				<path class="st3" d="M75.6,57.1c-0.1,0-0.1-0.1-0.2-0.1c-0.1-0.1-0.3-0.2-0.5-0.2c-0.1,0-0.2,0-0.3,0h-0.1
					c-0.7,0.2-1.4,0.1-1.8-0.2c-0.4-0.4-0.6-1-0.6-1.7c0-0.6,0.2-1,0.9-1.2c0.3-0.1,0.6-0.2,0.8-0.4l0.1-0.1
					c0.4-0.2,0.6-0.5,0.6-0.7c0-0.3-0.1-0.5-0.4-0.8c-0.3-0.2-0.6-0.4-0.9-0.7c-0.5-0.3-1-0.4-1.4-0.2c-0.2,0.1-0.4,0.4-0.3,1.1
					c0.1,0.5,0,1-0.2,1.4c-0.3,0.6-1.5,0.9-2.2,0.7c-0.4-0.2-0.8-0.5-1-1c-0.1-0.2-0.2-0.6,0-0.9c0.1-0.2,0.1-0.4,0.2-0.6
					c0-0.1,0-0.2,0.1-0.3v-0.1h-0.1c-0.9,0-1.3,0.4-1.3,1.2c0,1.2,1,2.5,2.3,2.8c0.4,0.1,0.8,0.2,1.2,0.2c0.2,0,0.3,0,0.5,0.1
					c0.1,0.1,0.1,0.3,0.2,0.4c0.2,0.4,0.3,0.7,0.5,1.1c0.5,0.8,1.5,1.2,2.4,1.2c0.4,0,0.8-0.1,1.1-0.3c0.1-0.1,0.2-0.3,0.3-0.4
					C75.4,57.3,75.6,57.3,75.6,57.1C75.7,57.3,75.7,57.2,75.6,57.1C75.7,57.2,75.6,57.1,75.6,57.1z"/>
				<path class="st3" d="M95.8,47.4c0.2-0.9-0.1-1.5-0.4-1.8c-1.2-1.4-3.5-1.9-6.9-1.4c-1.6,0.2-3.1,0.6-3.9,0.8
					c-2.6-3.6-5.3-5-6.7-5.5c0.1-1.7-0.1-3.7-0.6-5.5c-0.5-1.6-1.3-3.7-2.9-4.3c-0.1,0-0.2-0.1-0.3-0.1c-4.4,0.1-6.6,6.8-7.1,8.5
					c-1.5,0.8-2.6,1.8-3.3,2.6l-6.2-3h-0.1c-0.3,0.1-0.5,0.3-0.6,0.5l-0.2,0.3l0.3,0.2c0.1,0.1,0.6,0.2,0.8,0.3l0.2,0.1
					c0.3,0.2,0.8,0.5,1.3,0.8c0.4,0.3,0.7,0.3,0.9,0.5c0.3,0.1,0.6,0.3,1.4,0.7c0.6,0.4,0.8,0.5,1,0.6c0.1,0.1,0.2,0.1,0.3,0.2
					c-0.3,0.6-0.6,1.1-0.9,1.7h-0.1l-5.6-3c-0.5-0.3-1.1-0.5-1.4-0.6h-0.1c-0.4-0.1-0.6,0.1-0.9,0.4l-0.3,0.3l0.2,0.2
					c0.2,0.2,1,0.6,1.9,1.1l0.2,0.1c0.1,0.1,0.2,0.1,0.2,0.1c1.6,1,3.3,1.8,4.4,2.3c0.2,0.1,0.4,0.2,0.5,0.3
					c0.2,0.1,0.3,0.2,0.2,0.4l-0.4,1.4c0,0.1-0.1,0.2-0.2,0.2c-0.1,0-0.2,0-0.2,0l-7.9-2.7v0.4c0,0.1,0,0.5,0.2,0.7
					c1.7,1,4.5,1.9,6.3,2.5c0.5,0.2,0.9,0.3,1.3,0.4h0.1c0,0,0.1,0.1,0.2,0.2c-0.3,3.6,0.6,6.7,1.3,8.5c-6.9,7.7-8,16-7.5,22.6
					c0,1.3,0.1,2.5,0.2,3.6c0.3,3.9,0.4,6.2-1.8,9.4c-0.8,1.2-1,3-0.4,4.1c0.5,0.9,1.4,1.4,2.4,1.4h5.7c0.1,0,0.1,0,0.2,0
					c1.1,0,2.3,0,2.4,0c1.2,0,2.2-0.3,2.8-0.9c0.6,0.6,1.6,0.9,2.8,0.9c0.2,0,3.2,0,4.1,0c0.1,0,0.1,0,0.2,0h5.7
					c1,0,1.9-0.5,2.4-1.3c0.1,0,0.2,0,0.3,0h0.1c3.5,0,6.5-1.5,7.9-3.9c1-1.7,1.6-4.5-0.8-8.6c-0.6-1-0.8-1.8-0.6-2.2
					c0.2-0.5,1.1-0.6,1.6-0.7c0.4-0.1,1.4-0.3,1.3-1.2c-0.2-1.4-1.2-2.4-2.6-2.8c-2-0.6-4.5,0.1-5.9,1.7c-0.4,0.4-0.8,1-1,1.9
					c-0.3-1.5-1-3.3-2.2-5.3c0.6-4.6,0.5-9.2-1.6-12.4c2.1-0.1,3.8-0.6,5.2-1.3l3.7,4l0,0c0.2,0.1,0.3,0.2,0.5,0.2h0.1
					c0.1,0,0.2,0,0.3,0h0.1l0.2-0.1v-0.2c0-0.4-0.6-1.1-2.4-3.1c-0.4-0.5-0.9-1-1.5-1.6c0.6-0.4,1.1-0.7,1.6-1.1
					c1.9,2.1,4.1,4.2,4.9,4.8l0.1,0.1l0.1,0.1h0.1c0.2,0.1,0.5,0,0.8-0.3l0.3-0.2L86.3,59c0.1-0.1,0.2-0.2,0.3-0.3
					c0.4-0.4,0.7-0.8,1-1.2c0.7,0.6,2.3,2,3.8,3c0.5,0.4,1,0.6,1.3,0.7h0.1h0.1l0.5,0.1l-0.1-0.5c0-0.1,0-0.2-1.1-1.2l0,0
					c-0.6-0.4-1.2-1-1.9-1.6l-0.2-0.2c-0.5-0.5-1.2-1.1-1.9-1.6c0.6-0.9,0.9-1.7,1.1-2.1C92.3,53.3,95.5,50.1,95.8,47.4z M56.3,94
					c-0.2,0.5-0.5,1-0.4,2c0,0.2,0.1,0.4,0.1,0.5h-1c-0.4,0-0.7-0.1-0.8-0.5c-0.3-0.6-0.2-1.6,0.2-2.3c1-1.4,1.5-2.7,1.9-4
					c0.2,0.9,0.4,1.6,0.4,2C56.7,93.1,56.5,93.6,56.3,94z M83.8,80.5c1.1-1.2,2.9-1.5,4-1.2c0.3,0.1,0.7,0.3,1,0.6
					c-0.8,0.2-1.9,0.6-2.4,1.6s-0.2,2.3,0.7,3.9c1.6,2.7,1.8,5,0.8,6.8s-3.5,3-6.2,3c0-0.9-0.3-1.8-0.8-2.5
					c-0.1-0.1-0.2-0.3-0.3-0.4c1.8,0.5,3.6-0.3,4.4-2.1c0.7-1.4-0.2-3-0.9-4.2c-0.2-0.3-0.4-0.7-0.5-0.9
					C82.8,83.2,82.8,81.6,83.8,80.5z M80.8,88.3c0.3-1,0.7-2.1,0.9-3.4c0.1,0.3,0.2,0.7,0.4,1c0.2,0.3,0.3,0.7,0.5,1.1
					c0.5,0.9,1.1,2,0.8,2.6c-0.6,1.3-1.7,1.4-2.6,1c-0.2-0.1-0.4-0.2-0.6-0.3C80.3,89.7,80.5,89,80.8,88.3z M79.1,87.7
					c-0.7,2-1.4,4,0.5,6.2c0.4,0.5,0.6,1.5,0.3,2.1c-0.2,0.4-0.5,0.6-0.9,0.6h-2.6c0.1-0.2,0.1-0.3,0.1-0.5c0.1-1-0.1-1.5-0.4-2
					c-0.2-0.4-0.4-0.9-0.4-2.2c0-0.6,0.5-2.4,1-4.4c0.7-2.5,1.5-5.5,2.1-8.6C80.7,83,79.8,85.5,79.1,87.7z M75.8,61.8L75.8,61.8
					C75.7,61.8,75.7,61.8,75.8,61.8h-0.2h-0.1c0,0,0,0-0.1,0c0,0-0.1,0-0.1,0.1l0,0c0,0-0.1,0-0.1,0.1l0,0c0,0,0,0-0.1,0.1l0,0l0,0
					c0,0,0,0.1-0.1,0.1c0,0,0,0,0,0.1v0.1c0,0,0,0,0,0.1v0.1l0,0c0,0,0,0,0,0.1v0.1v0.1V63v0.1v0.1v0.1c0,0,0,0,0.1,0.1
					c0,0,0,0,0.1,0.1l0,0c5.1,4.5,1.6,17-0.2,23.7c-0.7,2.4-1.1,4-1.1,4.8c0,1.7,0.4,2.4,0.6,3c0.2,0.4,0.2,0.5,0.2,1
					c-0.1,0.7-1.4,0.7-1.4,0.7l0,0c-1.4,0-4.1,0-4.3,0c-0.9,0-1.4-0.2-1.7-0.6c-0.4-0.7-0.1-2,0.2-2.6c0.8-1,5.7-7.1,2.3-14.7
					c-0.2-0.5-0.7-0.7-1.2-0.5s-0.7,0.7-0.5,1.2c2.8,6.3-0.9,11.4-1.9,12.6c-1-1.9-4.8-10.1-2-16.4c0.2-0.5,0-1-0.5-1.2
					c-0.5-0.2-1,0-1.2,0.5c-3.5,7.9,1.8,17.6,2.3,18.4c0.3,0.6,0.6,2,0.2,2.6c-0.3,0.4-0.8,0.6-1.7,0.6c-0.1,0-2.8,0-4.3,0l0,0
					c0,0-1.3,0-1.4-0.7c-0.1-0.5,0-0.6,0.2-1c0.3-0.5,0.6-1.3,0.6-3c0-0.7-0.3-1.8-0.6-3.3c-0.5-2.3-1.3-5.5-1.5-9.1
					c0-0.3,0-0.6,0-1c0-0.1,0-0.2,0-0.3c-0.2-6.2,1.2-13.5,7.5-20.3l0,0l0.1-0.1v-0.1v-0.1v-0.1v-0.1v-0.1v-0.1v-0.1V57
					c0-0.1,0-0.1-0.1-0.2c-1-2.3-3-8.2,0.5-14c0,0,1.2-1.9,3.8-3.2c0.2-0.1,0.4-0.3,0.5-0.6c0,0,0.5-2,1.5-3.9
					c0.8-1.6,2.1-3.5,3.8-3.6c1.3,0.8,2.5,5,2.1,8.5c-0.1,0.5,0.2,0.8,0.7,1c0.6,0.2,0.9,0.2,2.1,0.9s2.9,2.1,4.6,4.6
					c0.2,0.3,0.6,0.5,1,0.4c2.9-1,8-1.9,9.5-0.2c0.2,0.7-1.7,4.5-5.6,6.8c-0.2,0.1-0.3,0.3-0.4,0.5C88,54.4,85.3,62.4,75.8,61.8z"/>
			</g>
		</g>
	</g>
</g>
</svg>
