<?xml version="1.0" encoding="utf-8"?>
<!-- Generator: Adobe Illustrator 22.0.1, SVG Export Plug-In . SVG Version: 6.00 Build 0)  -->
<svg version="1.1" id="Step_1" xmlns="http://www.w3.org/2000/svg" xmlns:xlink="http://www.w3.org/1999/xlink" x="0px" y="0px"
	 viewBox="0 0 161.3 147.4" style="enable-background:new 0 0 161.3 147.4;" xml:space="preserve">
<style type="text/css">
	.st0{fill:#FFFFFF;}
	.st1{fill:#6F98AE;}
	.st2{fill:#2F322E;}
	.st3{fill:#D0D2D3;}
</style>
<g>
	<g>
		<path class="st0" d="M116.5,21.3l-0.4-0.1c-0.9-0.2-6.4,1.5-12.5,4.9c-0.1-1.1-0.3-2.2-0.6-3.2c4.2-2.5,9-5.5,10.3-6.7
			c0,0,0.1-0.1,0.2-0.1l0.2-0.1l0.1-0.2c0.2-0.4,0.1-0.8-0.2-1.3l-0.3-0.5l-11,7c-0.4-1-0.9-1.9-1.4-2.8c1-0.8,3.9-2.9,6.2-5.1
			c0.8-0.7,1.3-1.3,1.6-1.8l0.5-1l-0.8-0.1c-0.1,0-0.4,0-2.3,1.4c-0.9,0.8-1.9,1.5-3.1,2.4l-0.3,0.2c-1,0.7-2,1.4-3.1,2.4
			c-2.4-2.8-5.6-4.6-9.6-5.3l-6.2-9.8c-0.4-0.7-1.3-1.5-3.1-1.2c-1.5,0.3-2.1,1.8-2.2,2.1l-2.3,10.6l-13,7l-9.1-5.3
			c-0.7-0.6-1.8-0.8-3-0.1c-1.5,1-1.6,2.5-1.3,3.4l3.7,13.6c-0.8,1.9-1.3,3.9-1.4,5.9l0,0l0,0.3c0,0.5,0,1,0,1.5c0,0.1,0,0.1,0,0.2
			l-10.8,6.2l-0.1,0.2c-0.2,0.5,0,0.9,0.1,1.2l0.2,0.5l0.5-0.2c0.2-0.1,0.5-0.3,0.9-0.4l0.3-0.2c0.6-0.3,1.3-0.7,2.2-1.1
			c0.5-0.3,0.7-0.3,0.7-0.3c0.2,0,0.3,0,1.6-0.6c0.9-0.4,1.6-0.8,2.2-1.2c0.7-0.4,1.3-0.8,2.3-1.3l0.1,0l0.1,0c0,0,0,0,0.1,0.1
			c0.1,0.3,0.1,0.7,0.2,1c0.1,0.4,0.2,0.9,0.3,1.4c0.1,0.2,0,0.4-0.1,0.6l-9,4.9c-0.8,0.4-1.4,0.7-1.8,1c0,0-0.1,0.1-0.1,0.1
			c-0.5,0.5-0.4,0.9-0.2,1.4l0.2,0.7l0.5-0.1c0.5-0.1,1.5-0.5,2.9-1.2l0.4-0.2c0.1-0.1,0.3-0.1,0.4-0.2c2.6-1.2,5.3-2.8,6.8-3.8
			c0.3-0.2,0.6-0.3,0.8-0.5c0.3-0.2,0.5-0.1,0.7,0.1l0.3,0.3c0.4,0.6,0.9,1.2,1.5,1.8c0,0,0,0.1,0,0.1c0,0.1-0.1,0.3-0.2,0.3
			l-10.1,7.8l0.6,0.4c0.2,0.2,0.5,0.4,0.9,0.4c0.1,0,0.2,0,0.3-0.1c2.8-1.3,6.1-4,8.6-5.9c0.6-0.5,1.2-0.9,1.7-1.3l0.1-0.1
			c0.1,0,0.1-0.1,0.2-0.1c0.4,0.3,0.8,0.5,1.2,0.7l0,0l0,0c1.7,0.9,3.6,1.4,5.7,1.5c0.5,5.9-3.6,10.5-8.8,16.2
			c-8,8.8-17.9,19.7-14.9,41c-7.4,2.7-9.9,8.9-9,14c1.3,8.1,9.2,11.6,16.3,11.6c0.3,0,0.7,0,1,0c3.6-0.2,6.6-1.2,9.6-2.3
			c5.4-1.9,11.1-3.9,21.3-1c5,1.4,8.8,1.9,11.8,1.6l0,0l7.8-0.4c2.8-0.1,6.6-0.3,8.4-2.3c0.7-0.8,1-1.8,1-2.8
			c-0.2-4-2.2-5.9-3.9-7.4c-0.9-0.8-1.7-1.5-2.1-2.5l-0.2-0.4c-2.6-4.5-1.7-14.7,2.6-27.2c6.3-18.3,4.3-35.9-6-52.3
			c2.2-3.5,3.3-7.2,3.5-10.8l11.9-5.2l0.1-0.1c0.2-0.2,0.4-0.5,0.5-0.7l0.1-0.1c0.1-0.2,0.2-0.5,0.2-0.6L116.5,21.3z"/>
		<path class="st1" d="M93.8,20.4c-1.2,5.5-6.9,9.3-13.8,8.1c-0.9-2.5,0.6-6,3.4-8.2C86.2,18.1,90.5,18.2,93.8,20.4z M84.9,26.8
			c-0.6-1.3-1.1-2.5-1.7-3.7c-0.7,1.1-1.6,2.2-1.7,3.9C82.7,26.9,83.8,26.8,84.9,26.8z M89.8,24.3c1.2-0.8,1.7-1.9,2.1-3
			c-1.2-0.8-2.5-1-4.4-0.8C89.3,21.4,89.9,22.6,89.8,24.3z M58.5,38.3c0.6-3.9,2.1-7,6-8.3c3-1,6.5-0.3,8.5,1.7
			C70.7,37.9,63.9,41.1,58.5,38.3z M60.2,37.3c1.4,0.6,2.6,0.7,4.1,0.2c-1.6-1-2.2-2.4-1.9-4.3C60.9,34.5,60.6,35.8,60.2,37.3z
			 M70.9,32.6c-0.1-0.2-0.1-0.4-0.2-0.6c-1.2-0.2-2.4-0.5-3.6-0.7c0.6,1.3,1.1,2.4,1.7,3.6C69.5,34.3,70.2,33.5,70.9,32.6z
			 M75.7,44.8c1.9,1,4.5,0.5,6.1-1.2c0.7-0.7,1.2-1.6,1.8-2.4c1,0,2,0.2,3,0.1c2.3-0.2,4.2-2.4,4.1-4.5c0-0.3-0.4-0.6-0.7-1
			c-0.3,0.2-0.7,0.4-1,0.7C89,36.6,89.1,36.8,89,37c-0.5,2.8-2.8,3.7-5.2,2.3c-1-0.6-1.5-1.3-1.3-2.5c0.1-0.5,0.1-1.1,0-1.7
			c-0.1-1.4-0.8-1.8-2-1.3c-0.6,0.2-1.2,0.5-1.7,0.8c-1.4,0.8-1.9,2.3,0.1,3c0.8,0.3,1.7,0.8,2.2,1.4c0.8,1,0.3,3.3-0.7,4.2
			c-1,0.9-3.2,1.1-4.2-0.1c-0.3-0.4-0.8-0.7-1.3-1.1C74.3,43.4,74.6,44.1,75.7,44.8z M116.5,21.3l-0.4-0.1
			c-0.9-0.2-6.4,1.5-12.5,4.9c-0.1-1.1-0.3-2.2-0.6-3.2c4.2-2.5,9-5.5,10.3-6.7c0,0,0.1-0.1,0.2-0.1l0.2-0.1l0.1-0.2
			c0.2-0.4,0.1-0.8-0.2-1.3l-0.3-0.5l-11,7c-0.4-1-0.9-1.9-1.4-2.8c1-0.8,3.9-2.9,6.2-5.1c0.8-0.7,1.3-1.3,1.6-1.8l0.5-1l-0.8-0.1
			c-0.1,0-0.4,0-2.3,1.4c-0.9,0.8-1.9,1.5-3.1,2.4l-0.3,0.2c-1,0.7-2,1.4-3.1,2.4c-2.4-2.8-5.6-4.6-9.6-5.3l-6.2-9.8
			c-0.4-0.7-1.3-1.5-3.1-1.2c-1.5,0.3-2.1,1.8-2.2,2.1l-2.3,10.6l-13,7l-9.1-5.3c-0.7-0.6-1.8-0.8-3-0.1c-1.5,1-1.6,2.5-1.3,3.4
			l3.7,13.6c-0.8,1.9-1.3,3.9-1.4,5.9l0,0l0,0.3c0,0.5,0,1,0,1.5c0,0.1,0,0.1,0,0.2l-10.8,6.2l-0.1,0.2c-0.2,0.5,0,0.9,0.1,1.2
			l0.2,0.5l0.5-0.2c0.2-0.1,0.5-0.3,0.9-0.4l0.3-0.2c0.6-0.3,1.3-0.7,2.2-1.1c0.5-0.3,0.7-0.3,0.7-0.3c0.2,0,0.3,0,1.6-0.6
			c0.9-0.4,1.6-0.8,2.2-1.2c0.7-0.4,1.3-0.8,2.3-1.3l0.1,0l0.1,0c0,0,0,0,0.1,0.1c0.1,0.3,0.1,0.7,0.2,1c0.1,0.4,0.2,0.9,0.3,1.4
			c0.1,0.2,0,0.4-0.1,0.6l-9,4.9c-0.8,0.4-1.4,0.7-1.8,1c0,0-0.1,0.1-0.1,0.1c-0.5,0.5-0.4,0.9-0.2,1.4l0.2,0.7l0.5-0.1
			c0.5-0.1,1.5-0.5,2.9-1.2l0.4-0.2c0.1-0.1,0.3-0.1,0.4-0.2c2.6-1.2,5.3-2.8,6.8-3.8c0.3-0.2,0.6-0.3,0.8-0.5
			c0.3-0.2,0.5-0.1,0.7,0.1l0.3,0.3c0.4,0.6,0.9,1.2,1.5,1.8c0,0,0,0.1,0,0.1c0,0.1-0.1,0.3-0.2,0.3l-10.1,7.8l0.6,0.4
			c0.2,0.2,0.5,0.4,0.9,0.4c0.1,0,0.2,0,0.3-0.1c2.8-1.3,6.1-4,8.6-5.9c0.6-0.5,1.2-0.9,1.7-1.3l0.1-0.1c0.1,0,0.1-0.1,0.2-0.1
			c0.4,0.3,0.8,0.5,1.2,0.7l0,0l0,0c1.7,0.9,3.6,1.4,5.7,1.5c0.5,5.9-3.6,10.5-8.8,16.2c-8,8.8-17.9,19.7-14.9,41
			c-7.4,2.7-9.9,8.9-9,14c1.3,8.1,9.2,11.6,16.3,11.6c0.3,0,0.7,0,1,0c3.6-0.2,6.6-1.2,9.6-2.3c5.4-1.9,11.1-3.9,21.3-1
			c5,1.4,8.8,1.9,11.8,1.6l0,0l7.8-0.4c2.8-0.1,6.6-0.3,8.4-2.3c0.7-0.8,1-1.8,1-2.8c-0.2-4-2.2-5.9-3.9-7.4
			c-0.9-0.8-1.7-1.5-2.1-2.5l-0.2-0.4c-2.6-4.5-1.7-14.7,2.6-27.2c6.3-18.3,4.3-35.9-6-52.3c2.2-3.5,3.3-7.2,3.5-10.8l11.9-5.2
			l0.1-0.1c0.2-0.2,0.4-0.5,0.5-0.7l0.1-0.1c0.1-0.2,0.2-0.5,0.2-0.6L116.5,21.3z M97,38.3l-0.6,0.9L97,40
			c10.2,15.8,12.3,32.8,6.3,50.4c-2.7,7.9-6.7,22.4-2.3,29.9l0,0.1c0.7,1.6,1.8,2.6,2.8,3.5c1.5,1.3,2.7,2.5,2.9,5.2
			c0,0.3-0.1,0.4-0.2,0.5c-0.9,1-4.3,1.2-6.2,1.3l-1.5,0.1c0.6-1,1-2.1,1.2-3.5c0.8-6.4-4.7-10-8.4-11.3c-0.1-2.9-0.1-6.8,0-9.1
			c0-2.1,0.1-3.9,0-5.1c0-0.8-0.2-5.8-0.3-9.2c0-0.7,0-1.7-0.1-2.7c0,0,0-0.1,0-0.1c0,0,0-0.1,0-0.1l0,0c-0.1-0.8-0.9-1.4-1.7-1.3
			c-0.8,0.1-1.5,0.5-1.5,1.4c0,0,0.4,10.9,0.4,12c0,1.1,0,2.9,0,4.9c-0.1,6.5-0.1,10.4,0.4,12.7c-0.1,0-0.2-0.1-0.4-0.1
			c-2.8-1-5.5-1.6-7.9-2.1c-0.1-0.6-0.1-1.1-0.2-1.7c-0.1-1-0.3-2.1-0.5-3.3c-0.1-0.6-0.2-1.3-0.3-2c-0.1-0.7-0.2-1.7-0.4-2.8
			c-0.8-6.3-2.3-18-6.7-25.6c-0.4-0.8-1.4-1-2.2-0.6c-0.8,0.4-1,1.4-0.6,2.2c2.7,4.8,4.3,11.5,5.3,17.2c-1.7-2.8-3.6-5-5.6-6.2
			c-0.7-0.5-1.7-0.3-2.2,0.5c-0.5,0.7-0.2,1.7,0.5,2.2c4.1,2.6,8.1,10.7,9.5,19c0,0.2,0.1,0.4,0.1,0.6c-9.9-1.1-17,1.3-21.6,2.8
			c-1.9,0.7-4.3,1.5-4.6,1c-0.5-0.7-1.5-1-2.2-0.5c-0.7,0.5-1,1.5-0.5,2.2c1.6,2.6,4.6,1.6,8.3,0.3c5.9-2,15.8-5.4,30.8-0.2
			c2.4,0.8,3.7,0.2,4.4-0.5c0,0,0,0,0.1-0.1c0,0,0,0,0.1,0c0.4-0.3,0.6-0.8,0.6-1.3c0-0.2,0.1-0.5,0.1-0.7c2.2,1.2,4.8,3.4,4.4,7
			c-0.2,1.6-0.8,2.6-1.8,3.3c-2.2,1.5-6.7,1.3-13.4-0.6c-11.2-3.1-17.6-0.9-23.2,1.1c-2.9,1-5.5,2-8.7,2.1c-8.6,0.4-13.2-4.2-14-8.9
			c-0.6-3.7,1.2-8.8,8.2-10.9c0.8-0.2,1.2-1.1,1-2c0-0.1,0-0.3-0.1-0.4c-3-20.3,6-30.3,14-39.1c5.9-6.5,11-12,9.4-20.2l-0.3-1.3
			l-1.3,0c-4.2,0-7.4-1.6-9.3-4.6c-2.4-3.6-2.5-8.9-0.5-13.4l0.2-0.5l-3.8-14.1l10.1,5.9l15.9-8.5l2.4-11.3L88.3,14l0.7,0.1
			c5.3,0.7,9.1,3.8,10.7,8.5C101.9,29,99.5,34.7,97,38.3z"/>
		<g>
			<g>
				<path class="st2" d="M93.8,20.4c-1.2,5.5-6.9,9.3-13.8,8.1c-0.9-2.5,0.6-6,3.4-8.2C86.2,18.1,90.5,18.2,93.8,20.4z M84.9,26.8
					c-0.6-1.3-1.1-2.5-1.7-3.7c-0.7,1.1-1.6,2.2-1.7,3.9C82.7,26.9,83.8,26.8,84.9,26.8z M89.8,24.3c1.2-0.8,1.7-1.9,2.1-3
					c-1.2-0.8-2.5-1-4.4-0.8C89.3,21.4,89.9,22.6,89.8,24.3z M58.5,38.3c0.6-3.9,2.1-7,6-8.3c3-1,6.5-0.3,8.5,1.7
					C70.7,37.9,63.9,41.1,58.5,38.3z M60.2,37.3c1.4,0.6,2.6,0.7,4.1,0.2c-1.6-1-2.2-2.4-1.9-4.3C60.9,34.5,60.6,35.8,60.2,37.3z
					 M70.9,32.6c-0.1-0.2-0.1-0.4-0.2-0.6c-1.2-0.2-2.4-0.5-3.6-0.7c0.6,1.3,1.1,2.4,1.7,3.6C69.5,34.3,70.2,33.5,70.9,32.6z
					 M75.7,44.8c1.9,1,4.5,0.5,6.1-1.2c0.7-0.7,1.2-1.6,1.8-2.4c1,0,2,0.2,3,0.1c2.3-0.2,4.2-2.4,4.1-4.5c0-0.3-0.4-0.6-0.7-1
					c-0.3,0.2-0.7,0.4-1,0.7C89,36.6,89.1,36.8,89,37c-0.5,2.8-2.8,3.7-5.2,2.3c-1-0.6-1.5-1.3-1.3-2.5c0.1-0.5,0.1-1.1,0-1.7
					c-0.1-1.4-0.8-1.8-2-1.3c-0.6,0.2-1.2,0.5-1.7,0.8c-1.4,0.8-1.9,2.3,0.1,3c0.8,0.3,1.7,0.8,2.2,1.4c0.8,1,0.3,3.3-0.7,4.2
					c-1,0.9-3.2,1.1-4.2-0.1c-0.3-0.4-0.8-0.7-1.3-1.1C74.3,43.4,74.6,44.1,75.7,44.8z M116.5,21.3l-0.4-0.1
					c-0.9-0.2-6.4,1.5-12.5,4.9c-0.1-1.1-0.3-2.2-0.6-3.2c4.2-2.5,9-5.5,10.3-6.7c0,0,0.1-0.1,0.2-0.1l0.2-0.1l0.1-0.2
					c0.2-0.4,0.1-0.8-0.2-1.3l-0.3-0.5l-11,7c-0.4-1-0.9-1.9-1.4-2.8c1-0.8,3.9-2.9,6.2-5.1c0.8-0.7,1.3-1.3,1.6-1.8l0.5-1l-0.8-0.1
					c-0.1,0-0.4,0-2.3,1.4c-0.9,0.8-1.9,1.5-3.1,2.4l-0.3,0.2c-1,0.7-2,1.4-3.1,2.4c-2.4-2.8-5.6-4.6-9.6-5.3l-6.2-9.8
					c-0.4-0.7-1.3-1.5-3.1-1.2c-1.5,0.3-2.1,1.8-2.2,2.1l-2.3,10.6l-13,7l-9.1-5.3c-0.7-0.6-1.8-0.8-3-0.1c-1.5,1-1.6,2.5-1.3,3.4
					l3.7,13.6c-0.8,1.9-1.3,3.9-1.4,5.9l0,0l0,0.3c0,0.5,0,1,0,1.5c0,0.1,0,0.1,0,0.2l-10.8,6.2l-0.1,0.2c-0.2,0.5,0,0.9,0.1,1.2
					l0.2,0.5l0.5-0.2c0.2-0.1,0.5-0.3,0.9-0.4l0.3-0.2c0.6-0.3,1.3-0.7,2.2-1.1c0.5-0.3,0.7-0.3,0.7-0.3c0.2,0,0.3,0,1.6-0.6
					c0.9-0.4,1.6-0.8,2.2-1.2c0.7-0.4,1.3-0.8,2.3-1.3l0.1,0l0.1,0c0,0,0,0,0.1,0.1c0.1,0.3,0.1,0.7,0.2,1c0.1,0.4,0.2,0.9,0.3,1.4
					c0.1,0.2,0,0.4-0.1,0.6l-9,4.9c-0.8,0.4-1.4,0.7-1.8,1c0,0-0.1,0.1-0.1,0.1c-0.5,0.5-0.4,0.9-0.2,1.4l0.2,0.7l0.5-0.1
					c0.5-0.1,1.5-0.5,2.9-1.2l0.4-0.2c0.1-0.1,0.3-0.1,0.4-0.2c2.6-1.2,5.3-2.8,6.8-3.8c0.3-0.2,0.6-0.3,0.8-0.5
					c0.3-0.2,0.5-0.1,0.7,0.1l0.3,0.3c0.4,0.6,0.9,1.2,1.5,1.8c0,0,0,0.1,0,0.1c0,0.1-0.1,0.3-0.2,0.3l-10.1,7.8l0.6,0.4
					c0.2,0.2,0.5,0.4,0.9,0.4c0.1,0,0.2,0,0.3-0.1c2.8-1.3,6.1-4,8.6-5.9c0.6-0.5,1.2-0.9,1.7-1.3l0.1-0.1c0.1,0,0.1-0.1,0.2-0.1
					c0.4,0.3,0.8,0.5,1.2,0.7l0,0l0,0c1.7,0.9,3.6,1.4,5.7,1.5c0.5,5.9-3.6,10.5-8.8,16.2c-8,8.8-17.9,19.7-14.9,41
					c-7.4,2.7-9.9,8.9-9,14c1.3,8.1,9.2,11.6,16.3,11.6c0.3,0,0.7,0,1,0c3.6-0.2,6.6-1.2,9.6-2.3c5.4-1.9,11.1-3.9,21.3-1
					c5,1.4,8.8,1.9,11.8,1.6l0,0l7.8-0.4c2.8-0.1,6.6-0.3,8.4-2.3c0.7-0.8,1-1.8,1-2.8c-0.2-4-2.2-5.9-3.9-7.4
					c-0.9-0.8-1.7-1.5-2.1-2.5l-0.2-0.4c-2.6-4.5-1.7-14.7,2.6-27.2c6.3-18.3,4.3-35.9-6-52.3c2.2-3.5,3.3-7.2,3.5-10.8l11.9-5.2
					l0.1-0.1c0.2-0.2,0.4-0.5,0.5-0.7l0.1-0.1c0.1-0.2,0.2-0.5,0.2-0.6L116.5,21.3z M97,38.3l-0.6,0.9L97,40
					c10.2,15.8,12.3,32.8,6.3,50.4c-2.7,7.9-6.7,22.4-2.3,29.9l0,0.1c0.7,1.6,1.8,2.6,2.8,3.5c1.5,1.3,2.7,2.5,2.9,5.2
					c0,0.3-0.1,0.4-0.2,0.5c-0.9,1-4.3,1.2-6.2,1.3l-1.5,0.1c0.6-1,1-2.1,1.2-3.5c0.8-6.4-4.7-10-8.4-11.3c-0.1-2.9-0.1-6.8,0-9.1
					c0-2.1,0.1-3.9,0-5.1c0-0.8-0.2-5.8-0.3-9.2c0-0.7,0-1.7-0.1-2.7c0,0,0-0.1,0-0.1c0,0,0-0.1,0-0.1l0,0c-0.1-0.8-0.9-1.4-1.7-1.3
					c-0.8,0.1-1.5,0.5-1.5,1.4c0,0,0.4,10.9,0.4,12c0,1.1,0,2.9,0,4.9c-0.1,6.5-0.1,10.4,0.4,12.7c-0.1,0-0.2-0.1-0.4-0.1
					c-2.8-1-5.5-1.6-7.9-2.1c-0.1-0.6-0.1-1.1-0.2-1.7c-0.1-1-0.3-2.1-0.5-3.3c-0.1-0.6-0.2-1.3-0.3-2c-0.1-0.7-0.2-1.7-0.4-2.8
					c-0.8-6.3-2.3-18-6.7-25.6c-0.4-0.8-1.4-1-2.2-0.6c-0.8,0.4-1,1.4-0.6,2.2c2.7,4.8,4.3,11.5,5.3,17.2c-1.7-2.8-3.6-5-5.6-6.2
					c-0.7-0.5-1.7-0.3-2.2,0.5c-0.5,0.7-0.2,1.7,0.5,2.2c4.1,2.6,8.1,10.7,9.5,19c0,0.2,0.1,0.4,0.1,0.6c-9.9-1.1-17,1.3-21.6,2.8
					c-1.9,0.7-4.3,1.5-4.6,1c-0.5-0.7-1.5-1-2.2-0.5c-0.7,0.5-1,1.5-0.5,2.2c1.6,2.6,4.6,1.6,8.3,0.3c5.9-2,15.8-5.4,30.8-0.2
					c2.4,0.8,3.7,0.2,4.4-0.5c0,0,0,0,0.1-0.1c0,0,0,0,0.1,0c0.4-0.3,0.6-0.8,0.6-1.3c0-0.2,0.1-0.5,0.1-0.7c2.2,1.2,4.8,3.4,4.4,7
					c-0.2,1.6-0.8,2.6-1.8,3.3c-2.2,1.5-6.7,1.3-13.4-0.6c-11.2-3.1-17.6-0.9-23.2,1.1c-2.9,1-5.5,2-8.7,2.1
					c-8.6,0.4-13.2-4.2-14-8.9c-0.6-3.7,1.2-8.8,8.2-10.9c0.8-0.2,1.2-1.1,1-2c0-0.1,0-0.3-0.1-0.4c-3-20.3,6-30.3,14-39.1
					c5.9-6.5,11-12,9.4-20.2l-0.3-1.3l-1.3,0c-4.2,0-7.4-1.6-9.3-4.6c-2.4-3.6-2.5-8.9-0.5-13.4l0.2-0.5l-3.8-14.1l10.1,5.9
					l15.9-8.5l2.4-11.3L88.3,14l0.7,0.1c5.3,0.7,9.1,3.8,10.7,8.5C101.9,29,99.5,34.7,97,38.3z"/>
			</g>
		</g>
	</g>
	<g>
		<rect x="143" y="87" class="st3" width="6.7" height="46.2"/>
		<path d="M134.8,70.2h22.6v14.1c-7.4,0-13.8,0-22.6,0V70.2z"/>
		<path class="st3" d="M141.9,133.3V86.2h8.3v47.1h0.3V86.2h7.9c0.6,0,0.9-0.4,0.9-0.9v-16c0-0.6-0.4-0.9-0.9-0.9h-24.5
			c-0.6,0-0.9,0.4-0.9,0.9v16c0,0.6,0.4,0.9,0.9,0.9h7.9v47.1H141.9z"/>
		<path class="st2" d="M151.7,134.4h-2.6V87.4h-6v47.1h-2.5V87.4h-6.7c-1.2,0-2.1-0.9-2.1-2.1v-16c0-1.2,0.9-2.1,2.1-2.1h24.5
			c1.2,0,2.1,0.9,2.1,2.1v16c0,1.2-0.9,2.1-2.1,2.1h-6.7V134.4z M151.4,85h6.8V69.5h-24.1V85H151.4z"/>
		<path class="st2" d="M155.5,78.8c0.6,0,0.9-0.4,0.9-0.9v-5.7c0-0.6-0.4-0.9-0.9-0.9h-18.7c-0.6,0-0.9,0.4-0.9,0.9v5.7
			c0,0.6,0.4,0.9,0.9,0.9H155.5z M137.8,73.1h16.8v3.8h-16.8V73.1z"/>
		<path class="st2" d="M139.6,80.6h-2.3c-0.6,0-0.9,0.4-0.9,0.9c0,0.6,0.4,0.9,0.9,0.9h2.3c0.6,0,0.9-0.4,0.9-0.9
			C140.5,81,140,80.6,139.6,80.6z"/>
		<path class="st2" d="M145.6,81.6c0-0.6-0.4-0.9-0.9-0.9h-2.3c-0.6,0-0.9,0.4-0.9,0.9c0,0.6,0.4,0.9,0.9,0.9h2.3
			C145.2,82.5,145.6,82,145.6,81.6z"/>
		<path class="st2" d="M149.8,80.6h-2.3c-0.6,0-0.9,0.4-0.9,0.9c0,0.6,0.4,0.9,0.9,0.9h2.3c0.6,0,0.9-0.4,0.9-0.9
			C150.7,81,150.4,80.6,149.8,80.6z"/>
		<path class="st2" d="M154.9,80.6h-2.3c-0.6,0-0.9,0.4-0.9,0.9c0,0.6,0.4,0.9,0.9,0.9h2.3c0.6,0,0.9-0.4,0.9-0.9
			C155.9,81,155.5,80.6,154.9,80.6z"/>
		<rect x="8.2" y="140.5" class="st3" width="9.3" height="5.6"/>
		<path class="st2" d="M18.8,147.4H6.9v-8.3h11.9V147.4z M9.5,144.8h6.6v-2.9H9.5V144.8z"/>
		<rect x="143.9" y="140.5" class="st3" width="9.3" height="5.6"/>
		<path class="st2" d="M154.5,147.4h-11.9v-8.3h11.9V147.4z M145.2,144.8h6.6v-2.9h-6.6V144.8z"/>
		<rect x="1.4" y="133.3" class="st3" width="158.5" height="7.3"/>
		<path class="st2" d="M161.1,141.7H0.3v-9.6h160.8V141.7z M2.6,139.4h156.1v-4.9H2.6V139.4z"/>
	</g>
</g>
</svg>
