<?xml version="1.0" encoding="utf-8"?>
<!-- Generator: Adobe Illustrator 21.1.0, SVG Export Plug-In . SVG Version: 6.00 Build 0)  -->
<svg version="1.1" id="Step_4_-_CAT" xmlns="http://www.w3.org/2000/svg" xmlns:xlink="http://www.w3.org/1999/xlink" x="0px"
	 y="0px" viewBox="0 0 160 122.3" style="enable-background:new 0 0 160 122.3;" xml:space="preserve">
<style type="text/css">
	.st0{opacity:0.5;}
	.st1{fill:#A7A9AC;}
	.st2{fill:#2F322E;}
	.st3{fill:#FFFFFF;}
	.st4{fill:#A2AD85;}
	.st5{fill:#ECD689;}
</style>
<g>
	<g class="st0">
		<path class="st1" d="M124.4,118.6c0,2-18.5,3.7-41.2,3.7c-22.8,0-41.2-1.6-41.2-3.7c0-2,18.4-3.7,41.2-3.7
			C106,115,124.4,116.6,124.4,118.6"/>
	</g>
	<g>
		<path class="st2" d="M63.1,24.1c0-0.6,0.2-1.2,0.6-1.7c1-1.2,4.1-4.5,8.2-4.4c6.6,0.2,10.3,6.2,10.3,11.1
			c0,6.3-5.5,12.4-11.5,15.3c-7.4,3.6-15.6,4.7-15.6,11.9c0,0.8,0.1,1.8,0.4,2.6c1-0.9,3.9-2.2,7.3-2.2c11.5,0,15.6,7,27.6,5
			c-1.4-1.5-5.4-4.5-5.7-9.9c-1.1-0.3-3-0.6-4.8-1c-1.5-0.4-3-0.8-3.9-1.2c-0.3-0.1-0.5-0.3-0.5-0.7c0-0.2-0.1-0.6-0.1-0.7
			c0.6,0.1,8.7,1.9,8.9,1.9c0.2,0.1,0.4-0.1,0.5-0.4c0-0.3,0.2-1.5,0.2-1.6s0.1-0.4-0.7-0.6c-1-0.3-5-1.8-6.1-2.3
			c-0.2-0.1-1.6-0.6-2.3-1.2c0.1-0.2,0.4-0.6,0.5-0.7c0.2-0.2,0.4-0.3,0.9-0.2c0.4,0.1,1.2,0.5,1.6,0.6c0.4,0.1,6,2.4,6.4,2.5
			c0.3,0.1,0.4-0.1,0.5-0.3c0.1-0.2,0.8-1.1,1-1.3c0.1-0.1,0.1-0.2-0.1-0.3s-1.5-0.8-1.7-0.9c-0.2-0.1-1.5-0.7-2-0.8
			c-0.3,0-1.3-0.4-1.5-0.6c-0.3-0.1-2.4-1-2.5-1.1c0.1-0.2,0.2-0.5,0.3-0.5c0.1,0,0.2-0.4,0.6-0.5c0.3,0.1,8.1,2.9,8.3,3
			c0,0,0.1,0,0.2-0.1c0.1-0.1,2.3-1.7,3.5-2.2c0.3-0.1,0.9-0.4,1.3-0.5c0.1-0.2,5.4-7.8,5.7-8.2c0.8-1.2,3.4-1.4,3.9,1.2
			c0.2,1,1.1,6.1,1.3,6.9c1,0.4,9.3,3.7,9.8,3.9c0.9-0.5,6.4-3.4,6.8-3.6c1.1-0.6,3.3-0.4,2.6,2.3c-0.1,0.5-2,7.5-2.1,7.9
			c1.1,1.9,2.1,4.6,1.5,7.7c0.3,0.1,2.7,0.6,3,0.7s2.2,0.5,2.6,0.6c0.4,0,0.7,0.2,0.8,0.2s0.9,0.3,1.1,0.4l0.3,0.4
			c-0.3,0.1-0.8,0.4-2.1,0.2c-2.5-0.3-4-0.6-6.1-1.1c-0.2,0.7-0.5,1.4-0.9,2.1c0.6,0.2,8.7,2.7,8.9,2.8c-0.1,0.3-0.2,0.5-0.2,0.6
			c-0.1,0.1-0.2,0.5-0.7,0.5c-0.2,0-0.3-0.1-0.4-0.1c-0.1,0-0.4-0.1-0.7-0.1c-0.2-0.1-1.7-0.4-2.8-0.8c-1.1-0.3-4.6-1.5-4.9-1.6
			c-0.2,0.2-1.1,1.5-1.5,1.8c2.4,0.9,6.7,2.9,8,4.1c0.3,0.2,0.4,0.4,0.5,0.7c-0.1,0.1-0.4,0.5-1.4,0.4c-0.5-0.3-8.1-4.1-8.4-4.1
			c-2.2,1.7-4.6,2.6-7,3c0.1,0.7,0.9,3.7,0.9,8.7c0,9.4-2.6,19.2-2.6,26.8c0,4.7,4.6,4.9,4.6,10.1c0,2.3-2.8,3.4-6.3,3.4
			c-1.2,0-3.5,0.2-4.7-1.2c-0.5-0.5-2.1-1.6-3.3-10.1c0-0.3-0.3-2.6-0.4-5.1c0.2-2.5,0-5.4,0-6.2c0-1.2-0.3-8.9-0.8-9.4
			c-1.4,0.3-2.6,1.6-3.2,2.1c0,2.5-0.8,18.7-0.8,19.1c0,0.8-0.1,1.1,0.3,2.1c0.2,0.5,1.1,2,1.1,3.7c0,4.4-3.2,5.2-6.2,5.2
			c-0.6,0-2.2,0-3.7-0.8s-2.4-2-2.4-4c0-2.6,1.2-6.7,1.1-9.2c-0.4-5.8-1-8.8-2.5-13.5c-0.4,5.8-4.2,15.6-4.2,16.2s0,1.9,1,3
			s2.2,2.9,2.2,4.8c0,2.3-2,3.5-4.8,3.5c-1.8,0-3.1-0.1-3.5-0.3c-0.8-0.3-1.8-0.9-2.4-2.1c-0.9-1.7-1.4-4.3-1.4-7.7
			c0-1.8,0.5-18,0.6-18.5c-0.6-0.1-4.5-0.7-5.2-0.8c-0.3,1.5-2.3,10.8-2.3,17.3c0,3.3,1,5.1,1,7.3c0,2.5-1.1,4.3-5.1,4.6
			c-1.1,0.1-7,0.8-7.1-4.4c-0.1-3.1,2.2-5.2,2.1-9c-0.1-3.3-1.7-9.8-3.6-16.1c-0.3-1.1-2.6-7.5-2.6-14c0-3.4,1-7.8,1.1-8.1
			c0.1-0.3,0.2-0.6-0.2-1.2c-0.3-0.6-2.4-3.8-2.4-10c0-6.3,3.6-10.7,8.8-14c3-1.9,8.9-3.4,10.1-4.1c0.7-0.4,9.9-4,9.9-9.8
			c0-2.3-2.5-3.3-4.7-3.3c-2.8,0-3.5,1-4.9,1C63.5,25.2,63.1,24.4,63.1,24.1z"/>
		<g>
			<g>
				<g>
					<path class="st3" d="M93.1,46.5c0.5-0.2,1.5-0.9,3.2-0.7c-1,0.7-1.7,1.5-1.4,3C94,48.3,93.3,47.2,93.1,46.5z"/>
					<polygon class="st3" points="99.6,47.6 100.9,49.8 100.6,50.2 98.4,50.2 					"/>
				</g>
				<g>
					<path class="st3" d="M108.7,53.4c0.7-0.7,2.2-0.9,2.9-0.9c-0.2,0.4-1.1,2.4-1.2,2.6C110,54.8,108.9,53.6,108.7,53.4z"/>
					<path class="st3" d="M114.9,53.6c1,1,1.4,1.6,1.6,2.8c-0.3,0.1-1.3,0.5-2.6,0.3C114.3,56.3,115.4,55.4,114.9,53.6z"/>
				</g>
			</g>
			<g>
				<path class="st3" d="M71.7,89.9c2.7,0.3,5.2,0.5,8.1,0.2c-0.5,6.7-4.3,14.9-4.3,16.9s0.3,2.8,0.9,3.6c0.6,0.8,2.2,2.4,2.3,4.1
					c0,1.1-1.1,1.4-2.4,1.4s-2.2,0-2.6-0.1s-1.5-0.1-2.1-2.7c-0.2-1.2-0.5-2.8-0.5-5C71.1,105.9,71.7,91.2,71.7,89.9z"/>
				<path class="st3" d="M67.3,22.1c0.4-0.3,2.3-1.8,4.5-1.8c4,0,8.2,3.6,8.2,8.9c0,6.6-6.7,12.5-14,15c-8.7,3-13.1,6.3-13.1,12.4
					c0,1.7,0.9,4.9,1.5,5.7c0.4-0.2,4.2-3.2,8.5-3.2c8.8,0,15.4,5.4,22.7,5.4c3.9,0,4.7-0.2,6.5-0.9c1.3-0.5,1.5-1.8-0.6-3.9
					C88.7,56.8,87,55,87,51.3c0-3.6,3.2-7.6,6.9-8.8c0.7-0.2,1-0.4,1.5-1.2l5.3-7.6l1.4,7.5c0,0.3,0.4,0.7,1.1,1l10.3,4.1
					c0.3,0.1,1.1,0.1,1.6-0.2L121,43l-1.9,7.2c-0.1,0.4-0.1,1.1,0.2,1.7c0.3,0.6,1.4,2.3,1.4,4.7c0,4.7-3.9,9.2-9.9,10.2
					c-1.7,0.3-2.3,1.3-2,2.6c0.2,0.9,0.9,3.4,0.9,8.6c0,8.5-2.7,20.7-2.7,25.1c0,4.9,2,7,2.5,7.4c1.2,1,2.1,2.4,2.1,3.8
					c0,0.5-0.2,0.7-0.6,0.8c-1.4,0.5-3,0.7-5.1,0.5c-1.5-0.1-2-1.3-2.3-2.1c-1.3-3.4-1.7-7.5-1.9-10.6c-0.1-1-0.7-13.9-0.8-14.9
					s0-4.4-2.8-4.4c-2.8,0-4.5,2.5-4.8,2.8s-0.5,0.7-0.6,2.4S92,106.6,92,106.9s-0.2,1.5,0.4,2.8c0.6,1.3,1.1,2.2,1.1,3.3
					c0,2.4-1.8,2.8-3.1,2.8c-1.3,0-1.9,0-2.1,0c-0.3,0-2.2-0.5-2.5-1.7c-0.2-1.2,0.3-4,0.6-5.3c0.3-1.3,0.4-2.5,0.4-4
					c0-6-1.5-12.1-2.8-15.6c-0.2-0.6-1.5-4.3-2-5.3c-0.2-0.4-0.5-0.9-1.2-0.8c-0.7,0.1-1.2,0.8-1,1.4c0.1,0.3,1,2.5,1.2,3
					c-0.7,0.1-1.7,0.3-4.2,0.3c-2.9,0-9.9-0.8-12.6-1.4c-0.6-0.1-1.8,0.4-2,1.4c-0.2,1.1-0.9,4.1-1.5,7.3c-0.5,3.2-1,6.5-1,8.2
					c0,0.8-0.2,5.5,0.6,7.6c0.2,0.5,0.4,1.7,0.4,2.5c0.1,1.5-0.7,2.1-2.2,2.2c-0.6,0.1-2.3,0.3-2.9,0.2s-2.6-0.2-2.6-2.4
					c0-2,2.1-4.4,2.1-8.4c0-4.7-1.5-10.1-3.2-15.4c-1.4-4.7-3-9.5-3-16.1c0-0.8,0.3-4.5,0.8-5.8s0.5-2.4-0.1-3.5
					c-0.3-0.6-2.1-3.5-2.1-9.7c0-6.3,5.4-11.2,14.5-14.1c7.5-2.4,14.3-7.8,14.3-13C76.3,22.6,70.4,21.3,67.3,22.1z M102.1,50.9
					c0-3.6-2.9-6.3-6.1-6.3c-2,0-3.8,1.2-4.2,1.5C92.6,49.5,96.7,52.7,102.1,50.9z M114.6,57.9c1.3,0,2.7-0.5,3.3-0.9
					c-0.1-2.4-2.2-5.8-6.4-5.8c-2.4,0-3.8,1.1-4.4,2.1C107.9,54.6,110.3,57.9,114.6,57.9z M101.5,56c0,0.8,0.4,1.2,0.4,2.3
					c0,1.3-1.5,1.9-2.4,1.9c-1,0-2.1-1-2.1-2c0-0.3,0.1-0.7,0-1.5c-0.9,0.3-1.2,0.6-1.2,1.2c0,1.1,1,2.8,3.2,3.2
					c0.6,0.1,2.2-0.1,2.5-0.1c0.5,0.6,0.8,1.2,1.3,1.6c0.7,0.6,1.5,0.9,2.3,0.9s1.3-0.2,1.9-0.6c0.3-0.2,0.3-0.3,0.3-0.5
					c0-0.1,0-0.3,0.1-0.4c-0.1,0-0.7-0.2-0.8-0.2c-0.1,0-0.1,0-0.1,0c-1,0.6-1.2,0.6-1.9,0.6c-1.3,0-2-1.4-2-2.9
					c0-1.2,2.1-1.7,2.2-2.8c0-0.4-0.3-0.6-0.5-0.8c-0.2-0.2-1.1-0.5-1.4-0.6s-0.7-0.2-1-0.2C101.8,55.3,101.5,55.7,101.5,56z"/>
			</g>
		</g>
	</g>
	<g>
		<g>
			<path class="st2" d="M159.4,7.4c-0.5-0.6-1.2-0.9-2-0.9c-1.9-0.2-4.3,1.2-5.5,2c0.6-2.1,1.6-6.1-0.1-7.4c-0.7-0.6-1.5-1-2.4-1.1
				c-1.5-0.1-3.1,0.5-4.2,1.8c-1.5,1.7-2,4-1.6,6.7c-1.8,0.1-3.4,0.8-4.2,1.9c-0.7,0.9-1.3,2.4-0.4,4.8c0.7,1.4,2.5,2.6,4.1,2.7
				c0.4,0,0.8,0,1.1-0.1c-0.1,0.4,0,0.9,0.1,1.3c0.3,1,1.1,1.9,2.1,2.2c0.4,0.1,0.8,0.2,1.2,0.2c1.1,0.1,2-0.2,2.7-0.9l0,0
				c1.2-1.2,1.4-3.1,1.4-4.7c4.8-0.1,6.8-2.7,7.5-3.8C160.7,9.7,159.7,7.8,159.4,7.4z"/>
			<g>
				<path class="st4" d="M143.2,16.2c-0.9-0.1-2.2-0.9-2.6-1.6c-0.5-1.3-0.4-2.3,0.1-3c0.8-1,2.3-1.3,3.6-1.2c0.1,0,1.6,0.2,1.6,0.2
					l-0.3-1.3c-0.7-2.5-0.3-4.8,1-6.3c1.2-1.3,2.9-1.6,4.1-0.5c0.6,0.5,0.3,3.5-0.8,6.3l-6.2,7.3C143.6,16.2,143.3,16.2,143.2,16.2z
					"/>
				<path class="st4" d="M157.6,11.4c-0.6,0.9-2.3,3.1-6.8,2.9l-1-0.1l0.1,1c0.1,1.5,0,3.4-0.8,4.2c-0.4,0.4-1.2,0.5-2.1,0.2
					c-0.4-0.1-0.8-0.6-0.9-1.1c-0.1-0.4-0.1-0.7,0.1-0.9l6.2-7.4c1.2-0.9,3.5-2.2,4.9-2.1c0.3,0,0.6,0.1,0.8,0.3
					C158.2,9.1,158.3,10.2,157.6,11.4z"/>
			</g>
		</g>
		<g>
			<path class="st2" d="M142.8,32.8c-0.7-1.1-2-1.7-3.7-1.9c-0.1,0-0.3,0-0.4,0c0.4-2.4,0-4.5-1.1-6.1c-0.8-1.1-1.9-1.8-3.1-1.9
				c-1-0.1-1.9,0.2-2.6,0.9c-1.5,1.5-0.9,4.4-0.4,6.2c-0.9-0.8-2.1-1.6-3.2-1.7c-0.8-0.1-1.4,0.2-1.8,0.8c-0.7,1-0.7,2.6-0.1,3.9
				c0.6,1.1,2,3.1,5.8,3.4c0.2,0,0.3,0,0.5,0c-0.1,1.1-0.2,2.2,0.6,3.1c0.5,0.6,1.2,0.9,2.1,1c1,0.1,2.5,0,2.9-1.2
				c0.1-0.2,0.1-0.4,0.1-0.5c0.2,0.1,0.4,0.2,0.7,0.2c1.3,0.1,2.8-0.9,3.6-1.9c0.2-0.3,0.4-0.7,0.5-1.1
				C143.4,34.8,143.3,33.7,142.8,32.8z"/>
			<path class="st5" d="M133.3,34.8c-0.3,0-0.7,0-1,0c-2.9-0.3-4-1.6-4.4-2.4c-0.5-1-0.3-1.9-0.1-2.2c0.1-0.2,0.2-0.2,0.3-0.2
				c0.7,0.1,2,1.1,2.9,2l0,0C131.1,32,133.3,34.8,133.3,34.8z M134.5,36.2L136,38c0.3,0.4,0.5,0.7,0.5,0.8l0,0c-1,0.1-1.6,0-1.9-0.3
				C134.1,37.9,134.5,36.2,134.5,36.2z M137.7,32.7c0.4,0,0.8-0.1,1.3,0c1.1,0.1,2,0.5,2.4,1.1c0.1,0.2,0.2,0.4,0.2,0.6
				c0.1,0.9-0.3,1.8-1,2.3c-0.5,0.4-1,0.6-1.4,0.6c-0.1,0-0.2-0.1-0.2-0.1l-5.1-6.3c-0.2-0.2-0.4-0.5-0.5-0.8
				c-0.7-1.9-1.2-4.3-0.3-5.1c0.4-0.3,0.8-0.5,1.3-0.4c0.7,0.1,1.3,0.5,1.8,1.2c1,1.4,1.2,3.5,0.6,5.8l-0.3,1.2L137.7,32.7z"/>
		</g>
	</g>
</g>
</svg>
