<?xml version="1.0" encoding="utf-8"?>
<!-- Generator: Adobe Illustrator 21.1.0, SVG Export Plug-In . SVG Version: 6.00 Build 0)  -->
<svg version="1.1" id="Step_4_-_CAT" xmlns="http://www.w3.org/2000/svg" xmlns:xlink="http://www.w3.org/1999/xlink" x="0px"
	 y="0px" viewBox="0 0 160 122.3" style="enable-background:new 0 0 160 122.3;" xml:space="preserve">
<style type="text/css">
	.st0{opacity:0.5;}
	.st1{fill:#A7A9AC;}
	.st2{fill:#353838;}
	.st3{fill:#FFFFFF;}
</style>
<g>
	<g class="st0">
		<path class="st1" d="M126.4,117.8c-10.4,8.3-16.1,1.1-31.7,2.9c-38.7,4.4-63-1.2-62.9-3.3c0.2-10.6,23.6-6.7,52.6-6.7
			C113.4,110.7,134.8,111.1,126.4,117.8z"/>
	</g>
	<g>
		<g>
			<path class="st2" d="M112,116.3c1.7,0.3,4.3,5,7.5,5c3.4,0,5.9-3.3,6.1-3.6s0.9-1,0.9-1.5s-0.2-1-0.7-2.1s-3.5-3.7-4.1-4.1
				c-1.6-1.2-3.8-2.1-5.9-2.1c0.5-0.5,0.7-1.1,0.7-1.7c0-1.4-0.9-2.4-1.6-3c0.3,0.1,4.9,2.4,6.3,2.8c0.8,0.2,1.2,0.3,1.5,0.4
				c0,0,0-0.1,0.1-0.8s-0.8-1-1-1.1s-2.6-1.1-3-1.3s-3.9-1.8-4.3-1.9c-0.3-0.2-0.3-0.4-0.3-0.5s0.3-1.4,0.3-1.7c0-0.1,0-0.2,0.3-0.1
				c0.2,0.1,1.2,0.3,2.3,0.8c1,0.4,1.9,0.9,2.1,1c0.4,0.2,2.9,1.2,3.5,1.4l0.2-0.6c0.1-0.4-0.1-0.7-0.1-0.8
				c-0.4-0.2-7.8-3.7-7.9-3.8c-0.1,0-0.3,0-0.3-0.2c-0.1-1.2-0.5-3.9-1.5-5.4l2-10.5c0.1-0.4,0.2-1.4-0.4-1.6
				c-1.3-0.6-2.9-0.1-3.1,0.1l-5.6,3.9L95.7,79l-2.4-8c-0.1-0.3-0.5-1.1-1.4-1.1s-1.5,0.8-1.6,1l-4.5,7.6c-1.1,0.2-2.1,0.7-2.8,1.1
				c-4.8-2.5-9.8-3.9-17.4-3.6c-19.4,0.7-25.7,13.8-25.8,25.4c-5.4,2.1-6.4,6.1-6.4,9.1c0,4.1,4.6,9.6,11.8,9.6
				c6,0,7.5-1.5,13.5-2.5c9.6-1.6,15.2-0.4,20.1-0.4c0,0,5.1-0.2,9.9-0.2c2.6,0,3.2-1.2,3.2-1.2c2.1-0.1,4.3-0.2,6.6-0.2
				c0,0,1.9,1.3,5.1,1.5c3.3,0.2,4.6-1.1,4.6-1.1C109.9,116,110.4,116.1,112,116.3z"/>
			<g>
				<path class="st3" d="M97.7,113.1c0,0-0.3-3,0.9-5.1c-11.8-0.5-20.4-7.5-21.6-16.3c-0.4-0.1-4.5-1.6-4.6-1.6
					c-0.1-0.1-3.9-1.4-4.3-1.5c-0.3-0.3-0.5-0.7-0.6-0.8c-0.1-0.1,0-0.3-0.1-0.5l0.3-0.1h0.1c0.3-0.1,1.1,0.1,1.6,0.2
					c1.2,0.2,3.7,1.1,4.3,1.3c0.7,0.2,2.6,1.1,3.2,1.3c0-0.5,0.2-2,0.2-2.4c-0.3-0.1-1-0.5-1.3-0.6s-3.1-1.6-3.5-1.8
					c-0.4-0.2-2-1.1-2.3-1.3c-0.2-0.1-0.4-0.3-0.5-0.3c-0.3-0.2-0.4-0.2-0.6-0.4c-0.2-0.2-0.1-0.6-0.1-0.7s0.2-0.4,0.3-0.6
					c0.5,0.2,3.8,2,4.3,2.3s3.4,1.8,4,2.1c0.2-0.7,0.5-1.4,0.9-2.1c-0.4-0.2-2.8-1.8-3.2-2.1s-1.8-1.4-2.1-1.7
					c-0.3-0.3-0.7-0.7-0.8-0.8c-0.1-0.1-0.3-0.5-0.4-0.7l0.4-0.1c0.1,0,0.1,0,0.3,0s0.7,0.4,1,0.5c0.3,0.2,0.9,0.6,1,0.7
					c0.2,0.1,0.7,0.5,0.9,0.6s1,0.6,1.8,1.1c0.8,0.5,1.5,1,1.8,1.2c0.5-0.7,1.1-1.3,1.9-2c-4.3-2.2-9.6-3.2-16.4-2.8
					c-5.7,0.3-12.3,2.6-16.3,6.9c-3.4,3.6-5.2,8.3-5.4,13c-0.1,1.9,0,3.5,0,3.9c0,0.5-0.3,1.1-1.5,1.4c-3.3,1-5.6,3.3-5.6,6.5
					c0,4.3,4,7.7,9.3,7.7c5.6,0,9.5-2.1,14.9-2.7c7-0.8,11.4-0.1,15.4-0.1c3.5,0,4.4-1.6,4.4-3.7c0-1.9-1.4-3.7-3-4.4
					c0,0.6-0.4,2-2.2,2c-1.8,0-6-2.9-14.1-2.9c-6.5,0-11.1,2.4-13.3,2.4c-1.1,0-1.9-1-1.9-1.4s1.1-0.6,1.8-0.8
					c1.4-0.2,7.4-2.5,13.6-2.5c5.1,0,9.2,1.3,12.8,2.6C73,95,65.3,92.6,57.8,91.5c-1.8-0.2-1.7-2.8,0.1-2.4
					C68,91.2,73.4,93,75.4,103.5c3,0.9,3.9,2.2,5.1,3.5c0.7-0.3,2.4-0.8,4.5-0.8c5.8,0,7.1,4.4,7.1,5.4c0,0.5,0,1.1,0,1.6
					C92.3,113.3,94.5,113.1,97.7,113.1z"/>
				<path class="st3" d="M81.1,114.8h7.1c0.5,0,1.4-0.1,1.5-0.8c0.1-0.3,0.4-1.4,0.3-2.3c-0.2-1.8-2.4-3.1-4.5-3.1
					c-1.8,0-3,0.4-3.6,0.6C82.7,111.9,81.5,114.3,81.1,114.8z"/>
				<path class="st3" d="M79.2,90.2c-0.2-4.3,2.5-8.5,7.6-9.5l4.8-7.4l2.7,7.6l11.3,5l7-4.7h0.1l-1.8,10.7c0.9,1.9,1.4,3.1,1.4,6.1
					c0,1.2-0.6,2.7-0.8,3.2c-4.4-0.7-9.3,1.6-11.5,4.5C88.4,106.1,79.6,99,79.2,90.2z"/>
				<path class="st3" d="M110,103.4c0.6,0,1.4,0.1,1.9,0.5c0.4,0.3,1.4,1,1.7,1.3c0.3,0.4,0.5,0.7,0.5,1.1s-0.6,0.7-0.8,0.8
					c-0.9,0.6-2.7,1.4-3.7,1.7c-0.2,0.6-1.8,6-5.5,6c-0.8,0-2.7-0.5-3.5-1.1c-0.9-0.6-0.9-1.8-0.6-3.2
					C101,106.9,104.7,103.4,110,103.4z"/>
				<path class="st3" d="M110.1,113.1c0.6-1.1,1.3-2.3,1.3-2.7c0.5,0,4.2-0.3,4.7-0.2c4.6,0.6,7.6,3.6,7.6,5.5c0,0.7-0.3,1-0.7,1.4
					c-0.4,0.4-1.6,1.9-3.9,1.9c-2.2,0-4.5-3.6-5.1-4.3C112.8,113.4,110.1,113.1,110.1,113.1z"/>
			</g>
		</g>
		<path class="st2" d="M108,97.1c-3.1,1.7-7.3,0.5-9.4-3.3c0.8-1.4,3.1-2.1,5.3-1.7C106,92.5,107.7,94.6,108,97.1z M101.3,95.4
			c0.4-0.8,0.7-1.5,1.1-2.3c-0.8,0.1-1.7,0.1-2.5,0.8C100.4,94.4,100.9,94.9,101.3,95.4z M104.5,96.8c0.9,0.2,1.6,0,2.3-0.2
			c-0.1-0.9-0.5-1.6-1.4-2.4C105.7,95.3,105.3,96.1,104.5,96.8z"/>
		<path class="st2" d="M85.1,87.5c2.1-1.3,4.2-1.8,6.4-0.5c1.7,1,2.8,3,2.6,4.7C90.3,93.1,86,91.2,85.1,87.5z M86.3,87.8
			c0.3,0.9,0.7,1.5,1.6,2.1c-0.2-1.2,0.3-2,1.2-2.7C88,87.1,87.2,87.4,86.3,87.8z M92.9,91.1c0.1-0.1,0.1-0.2,0.2-0.3
			c-0.4-0.7-0.7-1.3-1.1-2c-0.4,0.8-0.7,1.5-1,2.3C91.5,91.1,92.2,91.1,92.9,91.1z"/>
		<path class="st2" d="M90,96.8c0,0.4,0,0.7,0,1.1c-0.2,0.9,0.8,1.9,1.7,2c0.8,0.1,2.1-0.6,2.3-1.4c0.1-0.5,0-1.1-0.2-1.6
			c-0.5-1.2,0.4-1.6,1.4-1.3c0.4,0.1,0.7,0.3,1.1,0.5c0.7,0.4,0.8,0.9,0.2,1.5c-0.3,0.3-0.5,0.5-0.8,0.7c-0.7,0.4-0.8,0.9-0.7,1.6
			c0.3,1.8,1.7,2.5,3.2,1.6c0.1-0.1,0.2-0.2,0.3-0.2c0.2,0,0.5,0.1,0.7,0.2c-0.1,0.2,0,0.6-0.2,0.7c-1,0.9-2.8,0.8-3.8-0.1
			c-0.4-0.4-0.8-1-1.2-1.5c-0.6,0-1.3,0.1-1.9,0.1c-1.5,0-2.8-1.1-3.1-2.4C88.8,97.5,89.1,97.1,90,96.8z"/>
	</g>
</g>
</svg>
